<?xml version="1.0" encoding="utf-8"?>
<!-- Generator: Adobe Illustrator 25.2.0, SVG Export Plug-In . SVG Version: 6.00 Build 0)  -->
<svg version="1.1" id="Layer_1" xmlns="http://www.w3.org/2000/svg" xmlns:xlink="http://www.w3.org/1999/xlink" x="0px" y="0px"
	 viewBox="0 0 347.99 173.23" style="enable-background:new 0 0 347.99 173.23;" xml:space="preserve">
<style type="text/css">
	.st0{fill:#C22026;}
</style>
<g>
	<g>
		<path class="st0" d="M102.52,124.97l26.31-46.01c0,0,38.32-66.35,62.97-71.55s28.9,40.98,28.9,40.98l2.83,31.27h-20.47
			c0,0,0.84-25.3-5.6-35.3c-6.44-9.99-19-4.87-28.74,4.2c-9.74,9.07-34.08,31.56-62.35,76.41H102.52z"/>
		<path class="st0" d="M144.46,111.75c0,0,47.61-27.14,101.01-25.01l-5.29,19.71l-16.65-0.62c0,0-1.1-0.17-1.18,2.04
			c-0.08,2.2-0.68,30.02-0.68,30.02l-21.03-5.89l2.64-25.08c0,0,0.33-1.46-1.3-1.41s-36.02,1.34-57.53,8.57V111.75z"/>
	</g>
	<g>
		<path class="st0" d="M21.84,165.94l-1.72-5.15h-8.66l-1.72,5.15H4.3l8.39-21.72h6.16l8.42,21.72H21.84z M18.92,156.94
			c-1.59-4.67-2.49-7.31-2.69-7.92c-0.2-0.61-0.34-1.09-0.43-1.45c-0.36,1.26-1.38,4.39-3.07,9.37H18.92z"/>
		<path class="st0" d="M40.36,147.81c-1.9,0-3.37,0.65-4.41,1.95c-1.04,1.3-1.56,3.11-1.56,5.42c0,4.82,1.99,7.24,5.97,7.24
			c1.67,0,3.69-0.38,6.06-1.14v3.85c-1.95,0.74-4.13,1.11-6.54,1.11c-3.46,0-6.1-0.96-7.93-2.87c-1.83-1.91-2.75-4.65-2.75-8.22
			c0-2.25,0.45-4.22,1.35-5.91c0.9-1.69,2.19-2.99,3.88-3.89c1.69-0.9,3.66-1.35,5.93-1.35c2.31,0,4.63,0.51,6.96,1.52l-1.62,3.73
			c-0.89-0.38-1.79-0.72-2.68-1.01C42.11,147.95,41.23,147.81,40.36,147.81z"/>
		<path class="st0" d="M61.58,147.81c-1.9,0-3.37,0.65-4.41,1.95c-1.04,1.3-1.56,3.11-1.56,5.42c0,4.82,1.99,7.24,5.97,7.24
			c1.67,0,3.69-0.38,6.06-1.14v3.85c-1.95,0.74-4.13,1.11-6.54,1.11c-3.46,0-6.1-0.96-7.93-2.87c-1.83-1.91-2.75-4.65-2.75-8.22
			c0-2.25,0.45-4.22,1.35-5.91c0.9-1.69,2.19-2.99,3.88-3.89c1.69-0.9,3.66-1.35,5.93-1.35c2.31,0,4.63,0.51,6.96,1.52l-1.62,3.73
			c-0.89-0.38-1.79-0.72-2.68-1.01C63.33,147.95,62.45,147.81,61.58,147.81z"/>
		<path class="st0" d="M86.39,165.94H72.7V144.3h13.69v3.76h-8.65v4.75h8.05v3.76h-8.05v5.58h8.65V165.94z"/>
		<path class="st0" d="M107.78,151.05c0,2.33-0.8,4.11-2.4,5.34s-3.87,1.85-6.82,1.85h-2.16v7.7h-5.04V144.3h7.6
			c2.88,0,5.08,0.56,6.58,1.69C107.03,147.13,107.78,148.81,107.78,151.05z M96.39,154.48h1.66c1.55,0,2.71-0.28,3.48-0.83
			c0.77-0.56,1.16-1.37,1.16-2.44c0-1.07-0.32-1.87-0.97-2.38c-0.65-0.51-1.66-0.77-3.03-0.77h-2.29V154.48z"/>
		<path class="st0" d="M121.44,165.94h-5.04v-17.82h-6.46v-3.82h17.95v3.82h-6.45V165.94z"/>
		<path class="st0" d="M149.22,153.79h9.43V165c-1.53,0.45-2.97,0.77-4.32,0.96c-1.35,0.18-2.73,0.28-4.14,0.28
			c-3.58,0-6.33-0.96-8.22-2.88c-1.89-1.92-2.84-4.67-2.84-8.26c0-3.49,1.1-6.21,3.29-8.17c2.2-1.95,5.24-2.93,9.13-2.93
			c2.44,0,4.79,0.44,7.06,1.33l-1.67,3.67c-1.74-0.79-3.54-1.18-5.42-1.18c-2.18,0-3.92,0.67-5.23,2c-1.31,1.33-1.97,3.12-1.97,5.37
			c0,2.35,0.53,4.14,1.58,5.38c1.06,1.24,2.59,1.86,4.61,1.86c1.05,0,2.12-0.1,3.21-0.3v-4.51h-4.5V153.79z"/>
		<path class="st0" d="M164.31,165.94V144.3h5.04v17.84h9.64v3.79H164.31z"/>
		<path class="st0" d="M204.7,155.09c0,3.58-0.98,6.33-2.93,8.26c-1.95,1.92-4.75,2.89-8.39,2.89c-3.64,0-6.44-0.96-8.39-2.89
			s-2.93-4.69-2.93-8.29c0-3.6,0.98-6.35,2.93-8.25s4.76-2.85,8.41-2.85s6.45,0.96,8.38,2.87
			C203.73,148.75,204.7,151.5,204.7,155.09z M187.35,155.09c0,2.42,0.5,4.24,1.51,5.46c1.01,1.22,2.52,1.84,4.52,1.84
			c4.02,0,6.03-2.43,6.03-7.29c0-4.87-2-7.31-6-7.31c-2,0-3.52,0.61-4.54,1.84C187.86,150.85,187.35,152.67,187.35,155.09z"/>
		<path class="st0" d="M209.63,144.3h7.4c3.37,0,5.82,0.44,7.34,1.31c1.52,0.87,2.29,2.26,2.29,4.16c0,1.29-0.33,2.35-1,3.18
			c-0.67,0.83-1.55,1.33-2.66,1.5v0.15c1.51,0.3,2.59,0.88,3.26,1.71c0.67,0.84,1,1.95,1,3.34c0,1.97-0.78,3.51-2.35,4.62
			s-3.69,1.66-6.38,1.66h-8.89V144.3z M214.67,152.87h2.93c1.37,0,2.36-0.19,2.97-0.58c0.61-0.38,0.92-1.02,0.92-1.91
			c0-0.83-0.34-1.42-1-1.79c-0.67-0.36-1.72-0.54-3.16-0.54h-2.65V152.87z M214.67,156.51v5.64h3.28c1.39,0,2.41-0.24,3.07-0.73
			c0.66-0.48,0.99-1.22,0.99-2.22c0-1.8-1.41-2.69-4.23-2.69H214.67z"/>
		<path class="st0" d="M246.55,165.94l-1.72-5.15h-8.66l-1.72,5.15h-5.43l8.39-21.72h6.16l8.42,21.72H246.55z M243.63,156.94
			c-1.59-4.67-2.49-7.31-2.69-7.92c-0.2-0.61-0.34-1.09-0.43-1.45c-0.36,1.26-1.38,4.39-3.07,9.37H243.63z"/>
		<path class="st0" d="M254.97,165.94V144.3h5.04v17.84h9.64v3.79H254.97z"/>
		<path class="st0" d="M338,163.42c0-0.83,0.24-1.45,0.73-1.88c0.49-0.42,1.2-0.64,2.13-0.64c0.9,0,1.6,0.22,2.09,0.65
			c0.49,0.44,0.74,1.06,0.74,1.86c0,0.78-0.25,1.4-0.75,1.84c-0.5,0.45-1.19,0.68-2.08,0.68c-0.91,0-1.62-0.22-2.11-0.66
			C338.25,164.84,338,164.22,338,163.42z"/>
		<g>
			<path class="st0" d="M280.91,165.94V144.3h5.04v17.84h9.64v3.79H280.91z"/>
			<g>
				<path class="st0" d="M308.75,165.94h-5.04v-17.82h-6.46v-3.82h17.95v3.82h-6.45V165.94z"/>
				<path class="st0" d="M338,154.91c0,3.56-1.11,6.29-3.34,8.19c-2.23,1.89-5.44,2.84-9.65,2.84h-6.73V144.3h7.46
					c3.88,0,6.9,0.93,9.04,2.79C336.93,148.96,338,151.57,338,154.91z M332.76,155.03c0-4.64-2.25-6.97-6.77-6.97h-2.68v14.09h2.16
					C330.34,162.15,332.76,159.78,332.76,155.03z"/>
			</g>
		</g>
	</g>
</g>
</svg>
