<svg width="648" height="648" viewBox="0 0 648 648" fill="none" xmlns="http://www.w3.org/2000/svg">
<rect width="648" height="648" fill="#FF6A00"/>
<path d="M34.9603 367.241C33.9892 367.129 32.4715 366.266 31.3943 365.401C21.1429 355.36 34.3056 343.813 49.5325 337.122V318.018C53.0925 320.287 55.0386 320.391 55.1427 320.715L66.7997 309.169L62.9134 299.234C97.0253 287.468 110.731 282.933 138.473 278.296L133.5 273.649L141.603 269.014C160.274 275.171 177.875 276.785 174.846 292.436C175.605 281.858 162.434 277.754 142.358 272.143L138.473 274.514L145.918 280.669C112.677 286.389 92.2741 292.869 67.9871 301.286L71.3308 309.923L59.1372 321.903C61.1915 322.443 82.4531 329.565 104.576 314.132C104.576 314.132 105.012 313.806 105.012 313.7C104.369 312.62 102.852 311.429 101.02 309.815C107.497 310.248 111.7 315.966 110.947 321.903H107.925C108.14 319.959 107.707 317.908 107.065 316.507C89.9014 329.029 70.0393 330.865 53.0925 324.926V339.713C44.8893 342.628 30.205 351.688 30.3171 360.44C30.8557 364.646 33.0161 366.156 34.9603 367.241" fill="black"/>
<path d="M241.904 328.54H223.662L251.814 274.171H272.01L298.872 328.54H278.607L274.515 318.739H246.291L241.904 328.54ZM269.613 306.904L260.918 287.122L251.705 306.904H269.613ZM302.976 274.17H320.484V328.537H302.976L302.976 274.17ZM329.416 274.17H346.924V285.262H329.416V274.17ZM329.416 290.626H346.924V328.477H329.416V290.626Z" fill="white"/>
<path d="M104.185 363.823C85.8226 373.105 68.2371 380.554 41.1429 381.633C5.8477 380.874 0.343569 357.448 17.0722 332.951C32.8317 308.233 57.8756 285.884 97.7058 271.959C109.251 267.868 126.2 263.221 142.606 263.005C166.138 262.787 189.025 270.129 187.51 292.69C186.645 309.961 161.717 334.352 148.542 351.842C142.928 359.5 141.955 364.47 151.56 364.039C186.433 361.767 218.056 349.683 247.414 337.159C227.558 350.652 124.9 401.489 124.476 366.846C124.58 362.415 126.628 357.776 129.974 352.813C133.217 347.845 137.748 342.664 142.39 337.376C149.405 329.389 166.783 310.283 172.611 298.839C182.432 277.145 160.416 276.063 141.416 269.374L133.315 274.009L138.289 278.656C110.546 283.295 96.8409 287.829 62.7289 299.596L66.6153 309.529L54.9583 321.075C54.636 320.753 52.908 320.649 49.3461 318.379V337.482C34.1211 344.175 20.9565 355.722 31.2079 365.761C32.2871 366.626 33.8048 367.489 34.7759 367.601C53.4466 378.179 104.283 363.823 104.185 363.823V363.823ZM213.986 376.25H216.403C216.917 376.25 217.308 376.194 217.596 376.106C217.9 375.996 218.117 375.81 218.261 375.593C218.405 375.347 218.491 375.111 218.491 374.836C218.491 374.434 218.337 374.1 218.052 373.843C217.76 373.591 217.308 373.463 216.683 373.463H213.986V376.25ZM212.851 381.059V372.506H216.633C217.386 372.506 217.972 372.584 218.357 372.722C218.755 372.89 219.06 373.147 219.294 373.553C219.542 373.936 219.654 374.362 219.654 374.836C219.654 375.441 219.454 375.96 219.076 376.376C218.677 376.779 218.081 377.043 217.262 377.169C217.564 377.305 217.788 377.443 217.944 377.592C218.261 377.906 218.585 378.272 218.867 378.729L220.355 381.059H218.937L217.824 379.297C217.492 378.763 217.204 378.384 217.005 378.1C216.787 377.832 216.601 377.64 216.427 377.527C216.252 377.423 216.096 377.335 215.92 377.293C215.788 377.281 215.586 377.261 215.289 377.261H213.986V381.059H212.851Z" fill="white"/>
<path d="M216.319 385.091C220.81 385.091 224.456 381.437 224.456 376.966C224.456 372.473 220.81 368.825 216.319 368.825C211.84 368.825 208.196 372.473 208.196 376.966C208.196 381.437 211.84 385.091 216.319 385.091ZM209.456 376.966C209.456 373.176 212.529 370.101 216.319 370.101C220.106 370.101 223.185 373.176 223.185 376.966C223.185 380.736 220.106 383.818 216.319 383.818C212.529 383.818 209.456 380.736 209.456 376.966ZM287.51 338.611V384.692C290.711 384.692 294.287 381.791 294.287 378.588V376.173H298.126C300.695 376.039 303.652 372.439 303.652 370.641V360.387C303.652 358.459 301.473 357.064 300.442 356.293C301.473 355.39 303.652 353.856 303.652 351.926V338.611H287.51ZM296.994 353.856C296.994 354.621 296.358 355.91 295.583 356.677C295.463 356.813 295.074 357.194 295.074 357.194C295.014 357.246 294.946 357.32 294.814 357.32H296.994V370.641H294.303V344.245H296.994V353.856ZM322.615 368.458V347.827H306.345V376.027H314.416C315.701 375.899 317.245 375.38 318.512 374.487C319.293 373.972 319.934 373.466 320.573 372.819C321.726 371.538 322.615 370.004 322.615 368.458ZM312.756 353.215H316.212V370.765H312.756V353.215ZM304.675 338.611V344.245H324.189V384.692C326.369 384.692 331.082 382.588 331.082 378.207V344.245C332.488 344.245 333.647 340.145 333.647 338.611H304.675ZM363.046 379.38V375.073H376.729C378.707 375.073 380.493 371.697 381.548 369.871H363.046V366.223H373.335C376.259 366.223 381.016 362.177 381.152 360.095V338.611H337.125V366.223H354.835V369.871H337.125V375.073H354.835V379.38H336.609V384.716H377.896C379.594 384.716 381.152 381.338 382.457 379.38H363.046ZM363.046 355.021H366.564C367.08 355.021 367.607 354.887 368.122 354.492C368.774 354.104 371.902 350.196 372.294 349.797H363.046V343.812H373.075V361.014H363.046V355.021ZM345.068 355.021H354.833V361.012H345.068V355.021ZM345.068 343.812H354.833V349.797H345.068V343.812ZM394.018 378.742V365.757H422.164C424.704 365.757 429.278 361.547 429.398 359.438V338.611H385.707V378.277C385.707 381.447 387.615 384.736 391.179 384.736H424.53C427.045 384.736 430.066 380.724 430.587 378.742H394.018ZM411.878 344.536H421.163V359.827H411.878V344.536ZM394.08 344.536H403.837V359.827H394.08V344.536ZM446.87 378.742V365.757H475.021C477.572 365.757 482.137 361.547 482.274 359.438V338.611H438.583V378.277C438.583 381.447 440.491 384.736 444.051 384.736H477.392C479.909 384.736 482.93 380.724 483.463 378.742H446.87ZM464.746 344.536H474.034V359.827H464.746V344.536ZM446.952 344.536H456.693V359.827H446.952V344.536ZM511.324 370.271V368.825H514.598V370.068H534.444C534.444 370.068 533.959 372.741 529.626 372.741H514.81V379.911C514.81 385.349 511.324 386 511.324 386V372.946H487.684V370.271H511.324Z" fill="white"/>
<path d="M495.241 376.38H498.773C498.773 376.38 495.094 381.117 493.985 382.362C492.88 383.592 491.406 385.564 489.272 385.564C488.077 385.564 487.684 385.592 487.684 385.592L495.241 376.38ZM528.985 376.38H525.453C525.453 376.38 529.135 381.117 530.236 382.362C531.344 383.592 532.819 385.564 534.952 385.564C536.141 385.564 536.537 385.592 536.537 385.592L528.985 376.38ZM529.419 343.151C533.642 343.151 534.445 340.47 534.445 340.47H514.649L516.088 338.612H512.837L511.177 340.678H497.868L499.508 338.612H496.114L487.683 349.576H491.291V364.564C491.291 364.564 491.659 364.612 492.144 364.564C497.379 364.564 497.82 363.878 497.82 363.878H529.419C533.62 363.878 534.028 361.369 534.028 361.369H514.368V356.986H529.419C533.562 356.986 534.234 354.329 534.234 354.329H514.368V350.01H529.419C533.562 350.01 534.234 347.303 534.234 347.303H514.368V343.151H529.419ZM494.346 357.188H511.113V361.365H494.346V357.188ZM494.346 350.425H511.113V354.539H494.346V350.425ZM511.117 347.503H494.346L494.33 346.014L495.187 344.798L496.312 343.357H511.117V347.503ZM544.336 338.611V385.165H583.506C586.453 385.165 587.574 382.368 587.43 379.472V338.611H544.336ZM584.261 379.134C584.261 380.82 583.89 382.139 581.676 382.139H547.259V341.314H584.261V379.134Z" fill="white"/>
<path d="M561.793 357.496L551.892 375.35C551.892 375.35 555.213 375.975 556.727 372.827L565.144 357.538L561.793 357.496" fill="white"/>
<path d="M574.164 372.022C574.164 372.991 573.818 373.472 573.125 373.472H569.82V376.095H574.022C576.615 376.095 577.47 375.15 577.334 372.254C577.334 372.254 577.308 354.857 577.334 354.857C580.596 354.857 580.798 352.128 580.798 352.128L577.334 352.162V346.165H574.164V352.162H551.892V355.057H574.164V372.022" fill="white"/>
<path fill-rule="evenodd" clip-rule="evenodd" d="M377.548 274.169H360.045V322.206C360.045 323.584 359.989 324.803 359.876 325.872C359.764 326.936 359.614 327.829 359.418 328.537H376.921C377.144 327.777 377.306 326.886 377.402 325.852C377.504 324.819 377.548 323.68 377.548 322.427C379.44 324.733 381.709 326.487 384.356 327.678C387.011 328.87 389.97 329.462 393.23 329.462C399.148 329.462 403.885 327.737 407.455 324.285C411.027 320.829 412.811 316.242 412.811 310.513C412.811 304.218 411.003 299.167 407.385 295.357C403.765 291.544 398.972 289.638 393.007 289.638C389.942 289.638 387.119 290.179 384.542 291.246C381.963 292.319 379.634 293.927 377.548 296.071V274.169ZM392.757 301.846C394.331 303.776 395.118 306.409 395.118 309.753C395.118 313.018 394.315 315.609 392.707 317.527C391.099 319.443 388.933 320.398 386.206 320.398C383.429 320.398 381.272 319.471 379.723 317.621C378.179 315.765 377.402 313.168 377.402 309.825C377.402 306.283 378.175 303.592 379.707 301.736C381.24 299.88 383.457 298.95 386.356 298.95C389.053 298.95 391.189 299.914 392.757 301.846ZM446.263 327.329C448.914 326.274 451.082 324.654 452.746 322.464C452.746 323.447 452.824 324.4 452.97 325.319C453.12 326.234 453.349 327.147 453.675 328.05H469.895C469.623 327.412 469.437 326.731 469.326 325.994C469.216 325.259 469.158 324.29 469.158 323.095V303.793C469.158 298.906 467.272 295.258 463.522 292.867C459.762 290.472 454.031 289.277 446.339 289.277C438.328 289.277 432.373 290.302 428.465 292.355C424.555 294.403 422.568 297.53 422.49 301.731H438.648C438.869 300.335 439.543 299.284 440.668 298.588C441.798 297.889 443.422 297.538 445.528 297.538C447.864 297.538 449.61 298.019 450.78 298.972C451.943 299.929 452.528 301.377 452.528 303.313C452.528 303.411 452.516 303.563 452.49 303.771C452.466 303.979 452.456 304.122 452.456 304.194C440.709 304.292 432.341 305.405 427.34 307.525C422.344 309.654 419.847 313.112 419.847 317.901C419.847 321.413 421.295 324.126 424.194 326.042C427.091 327.956 431.226 328.915 436.614 328.915C440.396 328.915 443.608 328.385 446.263 327.329ZM440.805 312.757C442.857 312.022 446.715 311.652 452.38 311.652V312.245C452.38 315.038 451.635 317.128 450.143 318.514C448.657 319.897 446.425 320.592 443.448 320.592C441.622 320.592 440.214 320.242 439.215 319.543C438.22 318.846 437.719 317.871 437.719 316.622C437.719 314.782 438.748 313.494 440.805 312.757ZM494.634 274.169H477.124V322.206C477.124 323.584 477.074 324.803 476.958 325.872C476.85 326.936 476.692 327.829 476.5 328.537H494.003C494.227 327.777 494.387 326.886 494.484 325.852C494.584 324.819 494.634 323.68 494.634 322.427C496.522 324.733 498.792 326.487 501.441 327.678C504.09 328.87 507.046 329.462 510.309 329.462C516.228 329.462 520.967 327.737 524.535 324.285C528.107 320.829 529.893 316.242 529.893 310.513C529.893 304.218 528.083 299.167 524.467 295.357C520.845 291.544 516.052 289.638 510.091 289.638C507.027 289.638 504.2 290.179 501.626 291.246C499.049 292.319 496.714 293.927 494.634 296.071V274.169ZM509.843 301.846C511.412 303.776 512.199 306.409 512.199 309.753C512.199 313.018 511.396 315.609 509.787 317.527C508.175 319.443 506.014 320.398 503.289 320.398C500.512 320.398 498.356 319.471 496.802 317.621C495.256 315.765 494.484 313.168 494.484 309.825C494.484 306.283 495.254 303.592 496.788 301.736C498.322 299.88 500.538 298.95 503.434 298.95C506.135 298.95 508.271 299.914 509.843 301.846ZM563.347 327.329C566.002 326.274 568.159 324.654 569.828 322.464C569.828 323.447 569.908 324.4 570.051 325.319C570.199 326.234 570.435 327.147 570.757 328.05H586.979C586.713 327.412 586.519 326.731 586.409 325.994C586.297 325.259 586.243 324.29 586.243 323.095V303.793C586.243 298.906 584.367 295.258 580.606 292.867C576.84 290.472 571.118 289.277 563.425 289.277C555.418 289.277 549.454 290.302 545.547 292.355C541.639 294.403 539.653 297.53 539.579 301.731H555.731C555.955 300.335 556.628 299.284 557.755 298.588C558.882 297.889 560.504 297.538 562.616 297.538C564.945 297.538 566.699 298.019 567.862 298.972C569.025 299.929 569.606 301.377 569.606 303.313C569.606 303.411 569.598 303.563 569.578 303.771C569.554 303.979 569.538 304.122 569.538 304.194C557.795 304.292 549.426 305.405 544.422 307.525C539.427 309.654 536.93 313.112 536.93 317.901C536.93 321.413 538.379 324.126 541.275 326.042C544.168 327.956 548.316 328.915 553.694 328.915C557.479 328.915 560.69 328.385 563.347 327.329ZM557.883 312.757C559.943 312.022 563.802 311.652 569.462 311.652V312.245C569.462 315.038 568.717 317.128 567.234 318.514C565.74 319.897 563.505 320.592 560.53 320.592C558.704 320.592 557.302 320.242 556.299 319.543C555.304 318.846 554.802 317.871 554.802 316.622C554.802 314.782 555.831 313.494 557.883 312.757ZM639.376 274.169L639.6 274.169C639.564 274.169 639.527 274.169 639.491 274.169C639.453 274.169 639.414 274.169 639.376 274.169Z" fill="white"/>
</svg>
