<?xml version="1.0"?>
<svg xmlns="http://www.w3.org/2000/svg" xmlns:xlink="http://www.w3.org/1999/xlink" xmlns:svgjs="http://svgjs.com/svgjs" version="1.1" width="512" height="512" x="0" y="0" viewBox="0 0 512 512" style="enable-background:new 0 0 512 512" xml:space="preserve" class=""><g><title xmlns="http://www.w3.org/2000/svg">Automobile Services</title><path xmlns="http://www.w3.org/2000/svg" d="M96.689,131.311l-16.3,28.946c-7.88-.016-25.393-.015-35.064-.015-15.881,0-28.788,7.954-32.883,20.239A71.445,71.445,0,0,0,9.008,197.8a6.84,6.84,0,0,0,1.928,5.1A6.929,6.929,0,0,0,16,205h.009l24.272.043C29.7,213.1,22.892,226.587,22.892,242.123a7.289,7.289,0,0,0,.055.9l11.236,89.086A26.543,26.543,0,0,0,56,357.555v28.528A16.967,16.967,0,0,0,72.728,403h29.3A17.182,17.182,0,0,0,119,386.083V358H369.552a76.885,76.885,0,0,0,22.1,121.168,7.219,7.219,0,0,0,6.92-.316A7.123,7.123,0,0,0,402,472.89v-36.4l23.823-15.938,24.467,17.156-.147,35.2a6.987,6.987,0,0,0,10.1,6.3A77.039,77.039,0,0,0,457,339.939V172.061a76.99,76.99,0,0,0,3.223-139.213A7.072,7.072,0,0,0,450,39.11v36.4L426.177,91.445,401.71,74.289l.147-35.2a6.988,6.988,0,0,0-10.1-6.3A76.319,76.319,0,0,0,349.92,89.7a45.008,45.008,0,0,0-7.069-.7H150.771C129.138,89,109.938,104.111,96.689,131.311ZM24.058,191.138a56.371,56.371,0,0,1,1.67-6.212c2.123-6.37,10-10.651,19.6-10.651,7.128,0,18.523.018,27.172.034l-9.468,16.779ZM105,386.083A3.192,3.192,0,0,1,102.023,389H72.728A2.963,2.963,0,0,1,70,386.083V358h35ZM60.514,344a12.336,12.336,0,0,1-12.3-12.327,7.213,7.213,0,0,0-.056-.894L36.894,241.743c.191-18.492,12.842-29.944,25.515-30.692A7.176,7.176,0,0,0,63.6,211H394v40.044c-10,3.445-18.909,13.689-18.909,25.759S384,299.117,394,302.562v37.377c-2,1.192-4.715,2.061-7.185,4.061ZM302.5,197c2.7-15,16.241-27.323,32.5-27.323S364.8,182,367.5,197ZM394,266.646V286.96c-2-2.384-4.909-6.048-4.909-10.157S392,269.029,394,266.646ZM387.779,51.615,387.721,77.9a7.013,7.013,0,0,0,3,5.759l31.445,21.994a7,7,0,0,0,7.9.091l30.923-20.664A6.9,6.9,0,0,0,464,79.256V51.665c16,11.785,24.89,30.11,24.89,50.116a63.463,63.463,0,0,1-41.144,59.033A7.185,7.185,0,0,0,443,167.372V344.628a7.237,7.237,0,0,0,4.8,6.558,63.4,63.4,0,0,1,41.074,59.033A62.568,62.568,0,0,1,464.1,460.385l.121-26.287a6.984,6.984,0,0,0-2.972-5.759l-31.43-21.994a6.987,6.987,0,0,0-7.886-.091l-30.92,20.664A6.9,6.9,0,0,0,388,432.744v27.591c-16-11.785-24.89-30.11-24.89-50.116A63.3,63.3,0,0,1,392.2,357.1a6.6,6.6,0,0,0,.775-.516,59.837,59.837,0,0,1,10.734-5.4A6.771,6.771,0,0,0,408,344.628V167.372a6.781,6.781,0,0,0-4.3-6.558,63.046,63.046,0,0,1-15.92-109.2Zm-38.99,52.142c.818,29.49,19.211,56.28,45.211,68.3V197H381.645a46.988,46.988,0,0,0-93.29,0H75.589l33.4-59.023c.071-.127.139-.31.2-.44C115.435,124.658,129.142,103,150.771,103h192.08A28.106,28.106,0,0,1,348.789,103.757Z" fill="#1C0E00" data-original="#000000" style="" class=""/><path xmlns="http://www.w3.org/2000/svg" d="M89.411,249.805a27,27,0,1,0,27,27A27.028,27.028,0,0,0,89.411,249.805Zm0,40a13,13,0,1,1,13-13A13.013,13.013,0,0,1,89.411,289.8Z" fill="#1C0E00" data-original="#000000" style="" class=""/><path xmlns="http://www.w3.org/2000/svg" d="M153.383,292H338.617a7.289,7.289,0,0,0,6.627-9.561l-6.387-18.6c-4.388-12.9-18.5-22.837-32.135-22.837H184.775c-13.667,0-27.7,9.948-31.939,22.94l-6.107,18.592a7.307,7.307,0,0,0,.988,6.431A7.144,7.144,0,0,0,153.383,292Zm12.762-23.509C168.5,261.292,177.2,255,184.775,255H306.722c7.608,0,16.431,6.3,18.882,13.5l3.239,9.5H163.032Z" fill="#1C0E00" data-original="#000000" style="" class=""/><path xmlns="http://www.w3.org/2000/svg" d="M363.063,302H134.607a7,7,0,1,0,0,14H363.063a7,7,0,0,0,0-14Z" fill="#1C0E00" data-original="#000000" style="" class=""/></g></svg>
