<svg id="Layer_1" data-name="Layer 1" xmlns="http://www.w3.org/2000/svg" viewBox="0 0 347.13 158.62"><defs><style>.cls-1{fill:#ed3436;}.cls-2{fill:#4ea547;}.cls-3{fill:#a83c3f;}.cls-4{fill:#ed3539;}.cls-5{fill:#e44982;}</style></defs><path class="cls-1" d="M212.51,30a18.34,18.34,0,0,1,1.78-1.76,32.25,32.25,0,0,1,19-8.34c11.39-1,21,2.8,28.69,11.57a31.45,31.45,0,0,1,7.39,16.22,41,41,0,0,1,.29,5.42,29.37,29.37,0,0,1-3,13.36A32.57,32.57,0,0,1,245.2,84.41,33.56,33.56,0,0,1,234,85.59a29,29,0,0,1-6-1.16,32.86,32.86,0,0,1-16.31-10.07,32.21,32.21,0,0,1-7.83-16.66,32.63,32.63,0,0,1,4.57-22.5,1.65,1.65,0,0,1,1.73-.94c.28,0,.56,0,.84,0a3.08,3.08,0,0,1,3.13,2.39q1.54,5.2,3.08,10.42c1.62,5.49,3.21,11,4.87,16.45a9.52,9.52,0,0,0,7,6.79,13.07,13.07,0,0,0,3.36.25l17,0a13.27,13.27,0,0,0,2.51-.32.72.72,0,0,0,.66-.56c0-.16.14-.31.2-.47a2.08,2.08,0,0,0-1.8-3c-.93-.07-1.86,0-2.78,0-5.83,0-11.65,0-17.47,0a4.54,4.54,0,0,1-3.07-1.17c.1-.32.34-.18.5-.19,4.53-.16,9.06-.06,13.58-.09.9,0,1.8,0,2.7,0a3.28,3.28,0,0,0,2.54-1.16,6.13,6.13,0,0,0,1-1.57q3.71-7.95,7.42-15.9a8.68,8.68,0,0,0,.75-2.38,4.85,4.85,0,0,0-.17-2.3A3.54,3.54,0,0,0,252.45,39c-1.47,0-2.93,0-4.39,0H220.3c-.23,0-.45,0-.68,0s-.49-.15-.58-.47c-.27-.94-.54-1.88-.85-2.8a10.92,10.92,0,0,0-1.41-2.84,5.9,5.9,0,0,0-2.6-2.14Zm23.7,45.43a3.94,3.94,0,1,0-3.87,3.87A4,4,0,0,0,236.21,75.44Zm9.14,3.83a3.92,3.92,0,0,0,4-3.85,3.95,3.95,0,1,0-7.89,0A3.91,3.91,0,0,0,245.35,79.27Z"/><path class="cls-2" d="M266.32,139.17a1,1,0,0,1-.26-1q4.85-19.43,9.65-38.85c.21-.82.21-.82,1-.82h6.49a1.18,1.18,0,0,1,1.28,1.4A50.12,50.12,0,0,1,281.79,112c.23.26.45.1.65.06a14.51,14.51,0,0,1,3.58-.5,6.24,6.24,0,0,1,5.57,3.73c1.76,3.34.74,6.45-.13,9.85q-1.59,6.3-3.11,12.61a6.3,6.3,0,0,0-.22,2.73c.28,1.49,1.34,2,2.68,1.2a1.53,1.53,0,0,1,1.34-.22.67.67,0,0,1,.49.51c.46,1.48.94,2.95,1.42,4.43a1.29,1.29,0,0,1-.23,1.37,12.53,12.53,0,0,1-6.47,2.88,7.33,7.33,0,0,1-6.79-2.61c-2.83-3.22-1.66-8.1-.71-11.91,1.16-4.65,2.35-9.29,3.4-14,.05-.22.07-.45.1-.68a.58.58,0,0,0,.12-.4c0-.51.12-1.11-.41-1.4-2.36-1.33-4.35,3.09-4.73,4.8s-.81,3.4-1.24,5.1c-.81,3.2-1.64,6.39-2.44,9.59-.11.45-.27.66-.78.65C272.69,139.76,267.63,140.42,266.32,139.17Z"/><path class="cls-2" d="M242.88,106.9c-.84-.33.31-3.87.48-4.42.41-1.33.61-2.42,2.24-2.31a8.19,8.19,0,0,0,5.67-1.46,15.06,15.06,0,0,1,6-2.87,18.32,18.32,0,0,1,9.32.6,14.28,14.28,0,0,1,3.74,1.23c1,.62.77,1.77.56,2.74a56,56,0,0,1-1.32,5.44c-.46,1.34-1.08,1.5-2.3,1.08a14.94,14.94,0,0,0-8.35-2.25,4.38,4.38,0,0,0-3.32,1.61,3.12,3.12,0,0,0,.08,4.38,8.62,8.62,0,0,0,2,1.49c1.28.82,2.59,1.61,3.8,2.56.4.32.79.64,1.17,1a11.68,11.68,0,0,1,4.06,8.86,18.5,18.5,0,0,1-.19,3.79c-.19.16-.2.41-.27.62a16.82,16.82,0,0,1-4.41,7.05,14.27,14.27,0,0,1-9.3,3.94,22.92,22.92,0,0,1-9.09-1.44l-3.66-1.29c-.45-.09-.38-.38-.29-.72.55-2.17,1.08-4.35,1.62-6.52.07-.31.15-.61.24-.92.27-.95.92-1.26,1.76-.83a18,18,0,0,0,7.82,2.2,8.13,8.13,0,0,0,4-.77,3.62,3.62,0,0,0,2.19-3,4.83,4.83,0,0,0-.71-3.12,6.55,6.55,0,0,0-2.26-2.15c-2.06-1.4-4.55-2.39-6.28-4.23a9.91,9.91,0,0,1-2.64-6.21,3.41,3.41,0,0,1,3-3.84C246.3,107.26,244.57,107.57,242.88,106.9Z"/><path class="cls-3" d="M217.16,112.31s0,0,0,0a19,19,0,0,1,3-.72,6.7,6.7,0,0,1,2.73.37,7,7,0,0,1,3.88,3.76c2,4.39,1.34,10.31-.3,14.71a19.63,19.63,0,0,1-5.86,8.71,9.26,9.26,0,0,1-4.94,2.25,6.07,6.07,0,0,1-4.13-.85,5.23,5.23,0,0,0-1.55-.77,3.5,3.5,0,0,1-.18,1.37c-.39.5-1.33.39-1.91.4h-5.14c-2.36,0-1.4-3.83-1.07-5.18,1-4.12,2-8.22,3.06-12.34,1.16-4.62,2.3-9.25,3.46-13.87.59-2.35,1.17-4.71,1.75-7.06.29-1.18.51-2.39.86-3.54s.31-1.07,1.45-1.08h6C222.87,98.5,216.42,110.57,217.16,112.31Zm2.21,10c0-.21,0-.53-.08-.83a1.2,1.2,0,0,0-2-.85,5.36,5.36,0,0,0-.76.67,13.19,13.19,0,0,0-3.55,7.91,3.07,3.07,0,0,0,.18,1.44,1,1,0,0,0,1.6.67,5.23,5.23,0,0,0,1.88-1.68,12.68,12.68,0,0,0,1.49-2.6A12.54,12.54,0,0,0,219.37,122.34Z"/><path class="cls-2" d="M341.87,120.08a17.61,17.61,0,0,1-1.11,8c-.78,2.29-1.58,4.72-3.29,6.48a14,14,0,0,1-5.43,4.54,6.46,6.46,0,0,1-6.87-.57c-.26-.2-.55-.37-.79-.54-.21.12-.19.28-.22.41q-1.49,6-3,12c-.21.86-.21.87-1.12.88a72,72,0,0,1-7.49-.15,6.86,6.86,0,0,1,.17-2.74l8.88-36c.19-.76.1-.83,1.07-.8,2.05.06,4.1,0,6.15,0a1.27,1.27,0,0,1,1.31.67c.3.53.35.51.93.23a7.74,7.74,0,0,1,4.42-.81,6.48,6.48,0,0,1,5.35,4.2A13.27,13.27,0,0,1,341.87,120.08Zm-8.42,2.55c0-.2,0-.4.07-.6a5.19,5.19,0,0,0-.26-2.62,1,1,0,0,0-1.58-.71,3.39,3.39,0,0,0-1.09.79,11.73,11.73,0,0,0-1.88,2.64,14.27,14.27,0,0,0-1.45,4.48c-.22,1.37-.66,3.27.17,4.5a.9.9,0,0,0,1.37.33,5,5,0,0,0,1.2-.95A13.83,13.83,0,0,0,333.45,122.63Z"/><path class="cls-3" d="M202.85,123.28a20.54,20.54,0,0,1-3.93,12.9,14.14,14.14,0,0,1-7.08,5.35,8.86,8.86,0,0,1-11.28-5.63,13.52,13.52,0,0,1-.78-3.44,23.16,23.16,0,0,1,1-10.06,18.32,18.32,0,0,1,6-8.53,11.74,11.74,0,0,1,5.33-2.46,9,9,0,0,1,10,6A15.87,15.87,0,0,1,202.85,123.28Zm-8.09-.42a3.81,3.81,0,0,0-.11-1.12c-.33-.95-.92-1.18-1.75-.7a6.12,6.12,0,0,0-1.68,1.44,14.24,14.24,0,0,0-3,7.64,2.62,2.62,0,0,0,.35,1.66.79.79,0,0,0,1.07.42,3.22,3.22,0,0,0,1.55-1A13.75,13.75,0,0,0,194.76,122.86Z"/><path class="cls-3" d="M167.66,120.78H163l-.68,0c-2.9-.22-.27-7.32,0-8.61.16-.65.17-.66.86-.63,2.81.1,5.62,0,8.43,0,3.12,0,6.24,0,9.36,0s.06,5.14-.53,6.06L178,121.37q-2.38,3.69-4.75,7.38l-1.86,2.88c-.08.14-.23.26-.18.48a1.26,1.26,0,0,0,.72.07h4c2.24,0,1.42,3.73,1.12,5a17.75,17.75,0,0,1-.82,2.78c-.56,1.39-1.46,1.38-2.8,1.38H160.1c-.87,0-1.74,0-2.61,0s-.89-1.41-.88-2a4.69,4.69,0,0,1,.93-2.81l1.68-2.58,3.23-5c1.58-2.45,3.14-4.91,4.71-7.37C167.31,121.4,167.44,121.15,167.66,120.78Z"/><path class="cls-2" d="M293.9,132a11.65,11.65,0,0,1-.22-1.54,20.64,20.64,0,0,1,4-13.41,14.19,14.19,0,0,1,6.86-5.22,9,9,0,0,1,11.41,5.39,17.52,17.52,0,0,1,.92,7.47c0,.43-.08.86-.12,1.29a1.66,1.66,0,0,0-.12.31,24.2,24.2,0,0,1-2.67,6.68,15.13,15.13,0,0,1-7.38,6.53,9.27,9.27,0,0,1-6.1.35C297,138.81,294.63,135.51,293.9,132Zm14.92-10.11a5.08,5.08,0,0,0-.22-2.05c-.18-.5-.55-.92-1.12-.82a1.9,1.9,0,0,0-.71.32c-3,2-4.83,6.52-4.91,10.09,0,1.44.9,3.52,2.55,2.48a4.47,4.47,0,0,0,.9-.78,12.87,12.87,0,0,0,2.8-4.86A11.26,11.26,0,0,0,308.82,121.87Z"/><path class="cls-4" d="M174.31,42.71H152.64c-2.18-.16-2.31-.9-2.12-2.87a1.24,1.24,0,0,1,.79-1,3.22,3.22,0,0,1,1.56-.29h36.68c2,0,4.1,0,6.15,0a1.81,1.81,0,0,1,1.68,1,2,2,0,0,1,.07,1.9c-.07.15-.18.29-.26.44a1.25,1.25,0,0,1-1.29.72c-7.2,0-14.39,0-21.59,0Z"/><path class="cls-4" d="M178.78,50.53h15.78a12,12,0,0,1,1.34,0,2.09,2.09,0,0,1,1.52,3.1,2,2,0,0,1-1.61,1.11,7.85,7.85,0,0,1-.84,0H162.75a5.59,5.59,0,0,1-2-.36.85.85,0,0,1-.6-.76,8.33,8.33,0,0,1-.08-1.8,1.19,1.19,0,0,1,.7-1,3.61,3.61,0,0,1,1.71-.36Z"/><path class="cls-4" d="M184.89,62.47c3,0,7,0,11,.15a1.69,1.69,0,0,1,1.76,1.6,2,2,0,0,1-1.25,2.36,4.06,4.06,0,0,1-1.25.17H175.3c-1.33,0-2.65,0-4-.07a1.6,1.6,0,0,1-1.64-1.22,2.8,2.8,0,0,1-.06-1.62,1.56,1.56,0,0,1,1.19-1.21,7.44,7.44,0,0,1,1.76-.16Z"/><path class="cls-4" d="M251.85,43.51c-.24.81-.74,1.51-1,2.3a1.84,1.84,0,0,1-2.21,1.48c-2.07-.12-4.16,0-6.24,0-.69,0-.69,0-.7-.71V43.81c0-.3.06-.5.41-.5,3.15,0,6.29-.18,9.43.12A.88.88,0,0,1,251.85,43.51Z"/><path class="cls-4" d="M225.46,43.31a34.21,34.21,0,0,1,4,0c1,.09.82,0,.83.88s0,1.61,0,2.42c0,.61,0,.63-.61.63-2,0-4,0-6,0-.47,0-1,.22-1.4-.07s-.41-.92-.59-1.4-.42-1.25-.61-1.88-.13-.58.45-.58Z"/><path class="cls-4" d="M223.08,50.13a6.4,6.4,0,0,1,1.6-.11h5c.59,0,.6,0,.61.62,0,.84,0,1.67,0,2.51,0,.38-.09.6-.5.6h-5.23a.47.47,0,0,1-.49-.37Z"/><path class="cls-4" d="M248.94,50.11c-.58,1.18-1.11,2.25-1.62,3.32a.53.53,0,0,1-.54.33c-1.48,0-3,0-4.46,0-.6,0-.59,0-.59-.63,0-.83,0-1.67,0-2.5,0-.39.09-.57.52-.57,2.05,0,4.09-.05,6.14,0Z"/><path class="cls-4" d="M236,47.28h-2.44c-.33,0-.45-.13-.45-.46,0-1,0-2,0-2.93,0-.39.16-.52.49-.53.68,0,1.35-.09,2-.1,1,0,2,0,2.95.08.47,0,.61.24.59.7,0,.89,0,1.79,0,2.68,0,.42-.17.55-.56.54-.84,0-1.68,0-2.53,0Z"/><path class="cls-4" d="M236.05,60.39H233.6c-.36,0-.58-.09-.57-.53,0-1,0-1.91,0-2.86,0-.32.1-.46.42-.48,1.74-.12,3.49-.09,5.23-.05.28,0,.41.12.41.42,0,1,0,2,0,3,0,.4-.19.48-.52.48h-2.53Z"/><path class="cls-4" d="M236.05,53.76c-.82,0-1.63,0-2.45,0-.38,0-.56-.1-.55-.53,0-.92,0-1.85,0-2.77,0-.33.14-.46.46-.45h5.05c.34,0,.52.11.51.5q0,1.38,0,2.76c0,.42-.2.48-.52.48Z"/><path class="cls-4" d="M225.1,56.46h3.52l.25,0c.47.06,1.06-.21,1.37.16s.07.88.08,1.34c0,.63,0,1.26,0,1.89,0,.38-.13.51-.48.53a26.22,26.22,0,0,1-2.94,0c-.24,0-.43,0-.53-.32C226,58.92,225.55,57.75,225.1,56.46Z"/><path class="cls-4" d="M245.9,56.45c-.58,1.25-1.07,2.34-1.57,3.42a1.07,1.07,0,0,1-1,.57c-1.51.15-1.61.06-1.61-1.47,0-.66,0-1.32,0-2,0-.42.14-.57.54-.55s1,0,1.43,0Z"/><path class="cls-5" d="M5.18,140.72s38.49-82,59.15-107.26c0,0,41.66-64.72,57-4.32,0,0,7.27,30.39,7.22,57.81H107.36s1.21-26.71-3.89-38.22-17.58-15.52-36.32,7.2S7.74,140.7,7.74,140.7Z"/><path class="cls-5" d="M47.76,125.23S96.85,93.33,150.46,96l-5.9,22.16-16-.54s-1.46-.19-1.48,3.19-.5,34.48-.5,34.48l-21.44-6.42,2.63-29.37s1-2.66-2.86-2.41-42.21,3.24-57.17,10.34Z"/></svg>