<svg id="Layer_1" data-name="Layer 1" xmlns="http://www.w3.org/2000/svg" viewBox="0 0 500 500"><path d="M26.84,272.58c3.76-9.8,14.54-8.34,22.88-8.38q10.52-.06,21,0c14,0,28,.07,42,0l2.94,0c3.33,0,7.63-.34,10.47,1.73,5.82,4.26-.74,12.93-5.62,14.36-4.47,1.32-9.63.75-14.24.76l-15.17,0H33.39c-2.31,0-4.4-.58-5.85-2.55A5.9,5.9,0,0,1,26.84,272.58Z"/><path d="M54.69,305c1.58-4.87,6.55-7.78,11.5-7.84,6.91-.08,13.86.08,20.77.09l29.44,0c9.64,0,19.29-.37,28.89.79,4.77.58,5.7,3.82,4.8,8.2-.71,3.47-2.46,6.78-6.16,7.3-8,1.13-16.29.55-24.35.55l-25.35,0q-10.53,0-21.06,0c-3.51,0-7-.07-10.52-.05-2.61,0-5,.09-6.86-2.14a7.38,7.38,0,0,1-1.33-6.05C54.52,305.58,54.6,305.29,54.69,305Z"/><path d="M41.28,332.12a6.14,6.14,0,0,1,1.73-.56,51.81,51.81,0,0,1,6.23-.51c4.27-.11,8.54.14,12.81,0,4.86-.13,9.73-.22,14.6-.12,2.1,0,4.2.14,6.3.23,2.79.12,6-.33,7.24,2.78,2.07,5.35-1.25,11-6.37,12.86-3.63,1.34-7.55,1.24-11.36,1.12-5.46-.17-10.92,0-16.38.05-4.53,0-9.15.21-13.63-.59-1.77-.32-4.05-.61-5.31-2-1.14-1.28-1.19-3.14-1.09-4.76.13-2.36.51-4.54,2.25-6.27A11.62,11.62,0,0,1,41.28,332.12Z"/><path d="M165.61,399c-4.94-16.11,11-33.51,27.29-31.92,8.49.06,15.71,8,15.57,16.42.24,6.95-3.44,13.31-7.81,18.45C192.23,411.87,170.25,414.08,165.61,399Z"/><path d="M342.24,392.49c-.14-18,22.9-32.92,38.29-21.62,7.06,5.19,6.21,16.64,3,23.77-4,8.94-14.14,15.32-23.84,15.69C349.25,410.74,342.32,402.26,342.24,392.49Z"/><path d="M392.36,346.76c29.47-59.38,58.43-119,87.77-178.49-92.68-.48-185.37,0-278.06-.25-2.12-21.78-2.79-43.7-4.75-65.49l-1.19-1c-12.76-1.18-25.57.74-38.38.21-14.3.72-28.67-.36-43,.81-1,4.8-2,9.6-2.86,14.43,19,1,38,.27,57,.19l8.94,113.65c-3.29,0-6.59.08-9.88.1-14.06.11-28.12.07-42.18,0q-10.53,0-21.08,0c-3.51,0-7,0-10.53,0-4.86,0-10.24,2.83-11.53,7.77-.67,2.53-.59,5.56,1.36,7.53s5.38,1.81,8.07,1.71c14.12-.56,28.31-.06,42.45,0s28.15,0,42.23,0l42.22,0q21.12,0,42.23.07a9.28,9.28,0,0,1,5.59,2.22c2.89,2.48,1.25,7-.64,9.53A10.21,10.21,0,0,1,258,264q-26.29.1-52.61.09h-42.2c-3.86,0-9-1-12.34,1.25-2.67,1.77-5.55,4.65-5.9,8a8,8,0,0,0,1.79,5.74c1.48,1.75,3.36,1.89,5.54,1.85,3.85-.07,7.7.07,11.54.06,18.66-.08,37.31,0,56-.09q14.26,0,28.53,0h21.81c1.84,0,3.91-.26,5.42,1,2.26,1.94,2.24,6.29,1.51,8.82-2.2,7.66-12.06,7.1-18.21,6.91q-5.46-.17-10.92-.28-10.8-.21-21.59-.25c-18.68-.07-37.36.22-56,.64-5.93.55-10.89,7-8.49,12.8,1,3.82,5.68,3.41,8.75,3.55q31.89-.06,63.78,0c3.88,0,7.77-.36,11.63.1,3,.37,7.17.94,7.73,4.56.48,3.1-.5,7.53-3.23,9.38A17.5,17.5,0,0,1,239.41,331c-4.64-.18-9.29-.22-13.94-.21-9.3,0-18.6.28-27.9.28H134.25c-5.68,0-11.38-.31-17,.21-4.51.42-8.06,2.22-9.33,7a11.07,11.07,0,0,0-.07,5.15,4.46,4.46,0,0,0,4.07,3.6c7.21,1.06,14.34.89,21.61.91,18,.06,36.08-.13,54.12.12.4,5.07.74,10.13,1.31,15.19q98.81,0,197.62,0c.73-2.57,1.43-5.16,2.13-7.73-57.84-.68-115.71.06-173.56-.37Q215,351.6,215,348C270,347.78,325,348,380,347.9A79.5,79.5,0,0,0,392.36,346.76Z"/></svg>