<svg fill="#1C0E00" data-original="#000000" style="" class="" id="Capa_1" enable-background="new 0 0 512 512" height="512" viewBox="0 0 512 512" width="512" xmlns="http://www.w3.org/2000/svg"><g><g><path d="m490.932 264.373c15.347-8.99 21.068-38.787 21.068-64.924 0-20.808-3.63-43.928-12.849-57.034 1.069-7.688 1.817-14.017 2.27-19.261.385-3.771.579-7.606.579-11.403 0-61.62-50.131-111.751-111.75-111.751s-111.75 50.131-111.75 111.75c0 3.797.194 7.633.579 11.403.455 5.256 1.201 11.582 2.268 19.248-2.362 3.339-4.587 7.662-6.53 13.231-4.073 11.681-6.317 27.241-6.317 43.816 0 26.138 5.721 55.936 21.068 64.925-1.52 7.114-3.36 14.837-5.29 22.921-7.03 29.445-15.778 66.092-15.778 102.956 0 19.187 4.356 37.562 12.949 54.615 1.319 2.616 3.961 4.127 6.704 4.127 1.135 0 2.286-.259 3.369-.804 3.699-1.864 5.187-6.374 3.323-10.073-7.528-14.94-11.346-31.045-11.346-47.865 0-35.099 8.521-70.792 15.368-99.473.928-3.888 1.837-7.695 2.702-11.403 5.936 8.174 12.738 12.526 19.901 12.526 25.275 0 47.553-23.997 62.524-45.682 2.048.272 4.133.427 6.254.427s4.206-.155 6.254-.427c14.971 21.684 37.249 45.682 62.524 45.682 7.162 0 13.965-4.353 19.901-12.528.865 3.706 1.773 7.511 2.701 11.4 6.851 28.682 15.372 64.377 15.372 99.478 0 58.862-47.888 106.75-106.75 106.75-30.035 0-58.87-12.813-79.109-35.152-2.781-3.071-7.524-3.302-10.594-.523-3.07 2.781-3.304 7.524-.523 10.594 23.078 25.472 55.963 40.081 90.226 40.081 67.133 0 121.75-54.617 121.75-121.75 0-36.866-8.749-73.514-15.778-102.96-1.932-8.09-3.771-15.808-5.29-22.917zm.587-26.049c-3.005 8.618-6.974 13.764-10.615 13.764-11.714 0-30.964-7.812-54.714-22.096 7.013-8.239 11.258-18.902 11.258-30.543 0-11.642-4.246-22.305-11.259-30.544 23.752-14.285 43-22.096 54.715-22.096 7.613 0 16.097 21.618 16.097 52.641-.001 14.717-1.999 28.887-5.482 38.874zm-125.08-79.601c-22.531-13.977-41.192-22.558-55.708-25.629 4.439-7.937 8.683-11.099 10.741-11.099 18.134 0 36.048 19.668 47.458 35.367-.845.43-1.676.883-2.491 1.361zm17.557-6.045c-12.537-18.161-30.183-37.916-50.42-43.879 1.541-29.925 26.372-53.799 56.674-53.799s55.133 23.874 56.673 53.8c-20.231 5.96-37.875 25.705-50.421 43.878-2.048-.272-4.132-.427-6.253-.427-2.12 0-4.205.155-6.253.427zm75.032-30.683c2.06 0 6.303 3.163 10.741 11.099-14.516 3.07-33.178 11.652-55.708 25.629-.815-.478-1.646-.931-2.491-1.361 11.423-15.716 29.328-35.367 47.458-35.367zm-68.778-106.995c53.348 0 96.75 43.402 96.75 96.75 0 3.309-.171 6.651-.507 9.936-.004.04-.008.08-.012.12-.234 2.714-.552 5.747-.96 9.147-6.53-14.034-14.768-22.289-23.678-23.726-2.344-37.463-33.55-67.227-71.593-67.227s-69.249 29.764-71.593 67.227c-8.909 1.438-17.147 9.693-23.678 23.726-.407-3.393-.726-6.43-.961-9.148-.004-.04-.008-.08-.012-.119-.336-3.284-.507-6.627-.507-9.936.001-53.348 43.403-96.75 96.751-96.75zm-106.75 184.448c0-31.022 8.483-52.641 16.097-52.641 11.714 0 30.964 7.812 54.715 22.097-7.013 8.239-11.259 18.902-11.259 30.544s4.246 22.305 11.259 30.544c-23.75 14.284-43.001 22.096-54.715 22.096-7.614 0-16.097-21.618-16.097-52.64zm37.972 77.452c-2.066 0-6.307-3.163-10.743-11.099 14.516-3.07 33.179-11.651 55.71-25.629.815.478 1.646.931 2.491 1.361-11.4 15.683-29.32 35.367-47.458 35.367zm36.581-77.452c0-17.754 14.443-32.197 32.197-32.197s32.197 14.443 32.197 32.197-14.443 32.197-32.197 32.197-32.197-14.443-32.197-32.197zm100.975 77.452c-18.138 0-36.059-19.686-47.457-35.366.845-.43 1.676-.883 2.49-1.361 22.531 13.977 41.194 22.558 55.709 25.628-4.437 7.936-8.679 11.099-10.742 11.099z"/><path d="m243.5 199.448c0-20.808-3.63-43.928-12.849-57.034 1.069-7.678 1.816-14.008 2.271-19.262.384-3.771.578-7.607.578-11.402 0-61.619-50.131-111.75-111.75-111.75s-111.75 50.131-111.75 111.75c0 3.796.195 7.632.579 11.404.453 5.24 1.2 11.565 2.268 19.247-2.362 3.339-4.587 7.662-6.529 13.231-4.074 11.681-6.318 27.241-6.318 43.816 0 26.138 5.721 55.936 21.068 64.924-1.52 7.113-3.36 14.835-5.29 22.918-7.029 29.447-15.778 66.095-15.778 102.96 0 67.133 54.617 121.75 121.75 121.75s121.75-54.617 121.75-121.75c0-36.863-8.748-73.509-15.777-102.954-1.932-8.092-3.772-15.813-5.291-22.923 15.347-8.989 21.068-38.787 21.068-64.925zm-121.75-184.448c53.348 0 96.75 43.402 96.75 96.75 0 3.307-.17 6.65-.506 9.937-.004.039-.008.079-.011.118-.234 2.718-.553 5.752-.961 9.149-6.53-14.034-14.769-22.289-23.679-23.727-2.344-37.463-33.551-67.227-71.593-67.227s-69.249 29.764-71.593 67.227c-8.909 1.438-17.148 9.693-23.678 23.727-.408-3.399-.727-6.436-.961-9.149-.003-.04-.007-.079-.011-.118-.337-3.287-.507-6.63-.507-9.937 0-53.348 43.402-96.75 96.75-96.75zm23.812 225.173c22.531 13.977 41.193 22.558 55.709 25.628-4.437 7.936-8.68 11.099-10.743 11.099-18.138 0-36.059-19.686-47.457-35.366.845-.43 1.676-.882 2.491-1.361zm-23.812-8.527c-17.753 0-32.197-14.443-32.197-32.197s14.444-32.197 32.197-32.197 32.197 14.443 32.197 32.197-14.444 32.197-32.197 32.197zm-23.812 8.527c.815.479 1.646.932 2.492 1.362-11.4 15.682-29.32 35.365-47.458 35.365-2.066 0-6.308-3.163-10.744-11.099 14.516-3.069 33.179-11.65 55.71-25.628zm-44.966-118.178c18.134 0 36.047 19.668 47.457 35.367-.845.43-1.677.883-2.492 1.362-22.529-13.977-41.191-22.559-55.707-25.629 4.44-7.937 8.684-11.1 10.742-11.1zm68.778 30.256c-2.121 0-4.205.155-6.253.427-12.538-18.161-30.184-37.916-50.42-43.879 1.54-29.925 26.371-53.799 56.673-53.799s55.133 23.873 56.673 53.799c-20.231 5.96-37.875 25.705-50.421 43.878-2.047-.271-4.131-.426-6.252-.426zm-106.75 47.197c0-31.022 8.483-52.641 16.097-52.641 11.715 0 30.965 7.812 54.715 22.096-7.013 8.239-11.259 18.902-11.259 30.544s4.246 22.305 11.258 30.544c-23.75 14.284-43.001 22.096-54.714 22.096-7.614.001-16.097-21.617-16.097-52.639zm213.5 190.802c0 58.862-47.888 106.75-106.75 106.75s-106.75-47.888-106.75-106.75c0-35.1 8.521-70.795 15.369-99.477.928-3.887 1.836-7.692 2.702-11.399 5.935 8.174 12.739 12.526 19.902 12.526 25.274 0 47.552-23.997 62.524-45.682 2.048.272 4.133.427 6.254.427s4.206-.155 6.255-.427c14.971 21.684 37.249 45.682 62.523 45.682 7.162 0 13.966-4.352 19.902-12.528.865 3.708 1.774 7.515 2.703 11.406 6.845 28.681 15.366 64.374 15.366 99.472zm-16.097-138.162c-11.714 0-30.964-7.812-54.714-22.096 7.013-8.239 11.258-18.902 11.258-30.544 0-11.641-4.245-22.304-11.258-30.543 4.216-2.535 8.332-4.905 12.277-7.039 3.643-1.972 4.998-6.522 3.027-10.166s-6.521-4.997-10.166-3.027c-5.506 2.98-11.301 6.365-17.257 10.056-.818-.48-1.652-.935-2.5-1.367 11.423-15.716 29.328-35.366 47.458-35.366 2.061 0 6.307 3.166 10.748 11.11-3.113.658-6.4 1.553-9.869 2.713-3.929 1.314-6.048 5.563-4.734 9.492s5.563 6.052 9.492 4.733c6.422-2.147 11.886-3.236 16.24-3.236 7.614 0 16.097 21.618 16.097 52.641 0 14.719-1.998 28.889-5.481 38.876-3.007 8.617-6.976 13.763-10.618 13.763z"/></g></g></svg>