<svg id="Layer_1" data-name="Layer 1" xmlns="http://www.w3.org/2000/svg" xmlns:xlink="http://www.w3.org/1999/xlink" viewBox="0 0 403.45 158.62"><defs><style>.cls-1{fill:url(#linear-gradient);}.cls-2{fill:url(#linear-gradient-2);}.cls-3{fill:url(#linear-gradient-3);}.cls-4{fill:url(#linear-gradient-4);}.cls-5{fill:url(#linear-gradient-5);}.cls-6{fill:url(#linear-gradient-6);}.cls-7{fill:url(#linear-gradient-7);}.cls-8{fill:url(#linear-gradient-8);}.cls-9{fill:url(#linear-gradient-9);}.cls-10{fill:url(#linear-gradient-10);}.cls-11{fill:url(#linear-gradient-11);}.cls-12{fill:url(#linear-gradient-12);}.cls-13{fill:url(#linear-gradient-13);}.cls-14{fill:url(#linear-gradient-14);}.cls-15{fill:url(#linear-gradient-15);}.cls-16{fill:url(#linear-gradient-16);}.cls-17{fill:url(#linear-gradient-17);}</style><linearGradient id="linear-gradient" x1="6.29" y1="62.31" x2="443.38" y2="66.42" gradientUnits="userSpaceOnUse"><stop offset="0" stop-color="#f58a2e"/><stop offset="1" stop-color="#f05737"/></linearGradient><linearGradient id="linear-gradient-2" x1="6.29" y1="62.11" x2="443.38" y2="66.21" xlink:href="#linear-gradient"/><linearGradient id="linear-gradient-3" x1="6.48" y1="41.85" x2="443.57" y2="45.95" xlink:href="#linear-gradient"/><linearGradient id="linear-gradient-4" x1="6.49" y1="41.02" x2="443.58" y2="45.12" xlink:href="#linear-gradient"/><linearGradient id="linear-gradient-5" x1="6.51" y1="39.09" x2="443.59" y2="43.2" xlink:href="#linear-gradient"/><linearGradient id="linear-gradient-6" x1="6.51" y1="39.16" x2="443.59" y2="43.27" xlink:href="#linear-gradient"/><linearGradient id="linear-gradient-7" x1="-34.38" y1="132.82" x2="509.09" y2="137.92" xlink:href="#linear-gradient"/><linearGradient id="linear-gradient-8" x1="-34.37" y1="131.34" x2="509.1" y2="136.45" xlink:href="#linear-gradient"/><linearGradient id="linear-gradient-9" x1="-34.38" y1="133.58" x2="509.07" y2="138.69" xlink:href="#linear-gradient"/><linearGradient id="linear-gradient-10" x1="-34.39" y1="133.69" x2="509.11" y2="138.8" xlink:href="#linear-gradient"/><linearGradient id="linear-gradient-11" x1="-34.37" y1="133.18" x2="509.08" y2="138.29" xlink:href="#linear-gradient"/><linearGradient id="linear-gradient-12" x1="-34.42" y1="124.94" x2="509.31" y2="130.05" xlink:href="#linear-gradient"/><linearGradient id="linear-gradient-13" x1="-34.39" y1="134.82" x2="509.07" y2="139.92" xlink:href="#linear-gradient"/><linearGradient id="linear-gradient-14" x1="-34.36" y1="132.25" x2="509.09" y2="137.36" xlink:href="#linear-gradient"/><linearGradient id="linear-gradient-15" x1="-34.38" y1="131.58" x2="509.11" y2="136.69" xlink:href="#linear-gradient"/><linearGradient id="linear-gradient-16" x1="-34.35" y1="130.84" x2="509.1" y2="135.94" xlink:href="#linear-gradient"/><linearGradient id="linear-gradient-17" x1="-34.32" y1="126" x2="509.15" y2="131.11" xlink:href="#linear-gradient"/></defs><path class="cls-1" d="M200.47,67.64h-2.62a2.18,2.18,0,0,1-2-1.46l-.93-2.71a2.17,2.17,0,0,1,2-2.88h2.72a2.17,2.17,0,0,1,2.08,1.54l.83,2.71a2.17,2.17,0,0,1-2.08,2.8Zm-3.87-4.77.94,2.71a.32.32,0,0,0,.31.23h2.62a.33.33,0,0,0,.27-.14.31.31,0,0,0,0-.29L200,62.67a.32.32,0,0,0-.32-.24h-2.72a.33.33,0,0,0-.27.14.34.34,0,0,0-.05.3Z"/><path class="cls-2" d="M222.17,67.64h-2.62a2.17,2.17,0,0,1-2.05-1.46l-.94-2.71a2.18,2.18,0,0,1,2.06-2.88h2.72a2.15,2.15,0,0,1,2.07,1.54l.83,2.71a2.1,2.1,0,0,1-.33,1.92A2.14,2.14,0,0,1,222.17,67.64Zm-3.87-4.77.93,2.71a.34.34,0,0,0,.32.23h2.62a.31.31,0,0,0,.26-.14.33.33,0,0,0,.06-.3l-.83-2.7a.35.35,0,0,0-.32-.24h-2.72a.36.36,0,0,0-.28.14.34.34,0,0,0,0,.3Z"/><path class="cls-3" d="M201.72,4.79a38.89,38.89,0,0,0-38.88,38.89c0,.42,0,.83,0,1.25a36.39,36.39,0,1,1,37.61,37.61l1.24,0a38.89,38.89,0,1,0,0-77.78Z"/><path class="cls-4" d="M224.78,58.49H195.5a6.22,6.22,0,0,1-5.81-4.2l-8.28-22.37a4,4,0,0,0-3.67-2.7h-4.07a1.15,1.15,0,1,1,0-2.29h4.07a6.23,6.23,0,0,1,5.82,4.2l8.28,22.37a4,4,0,0,0,3.66,2.7h29.28a1.15,1.15,0,1,1,0,2.29Z"/><path class="cls-5" d="M214.93,43.74l-1,2.4c-1,2.51-2.1,5-3.14,7.52a.32.32,0,0,1-.37.22c-1.59,0-3.17,0-4.76,0a.37.37,0,0,1-.4-.27c-.89-2.22-1.8-4.43-2.7-6.64-.45-1.08-.89-2.16-1.33-3.24a1.24,1.24,0,0,1-.1-.47l.06-14.81a.35.35,0,0,1,0-.23l6.85,17.46c.13,0,.13-.13.16-.21q1.92-5,3.83-10.1l2.61-6.89c.14-.36.09-.3.42-.3l5.17,0c.34,0,.32,0,.32.3l-.09,25.06v.05c0,.25,0,.26-.26.26l-5,0c-.31,0-.31,0-.31-.32,0-3.13,0-6.26,0-9.39A1,1,0,0,0,214.93,43.74Z"/><path class="cls-6" d="M191.62,33c.13-.37.26-.69.38-1,.48-1.24.95-2.48,1.43-3.71.11-.28,0-.26.39-.26h5.25c.11,0,.16,0,.16.15a1.33,1.33,0,0,0,0,.2l-.09,25c0,.41,0,.36-.37.36l-4.45,0c-.37,0-.34,0-.34-.33q0-10,.07-20.06c0-.44,0-.38-.38-.39Z"/><path class="cls-7" d="M186.7,149.86a26.06,26.06,0,0,1-17.85,3A9.92,9.92,0,0,1,164.3,151a7.74,7.74,0,0,1-2.52-4.51q-.1-.51-.18-1c-.1-.66-.17-1.32-.23-2-.66-8,2-11.36,10-12.27,4.75-.55,9.52-1,14.25-1.43.67-5-.84-7.1-5.49-7.12a44.12,44.12,0,0,0-4.88,0,8.07,8.07,0,0,0-4.52,1.8,7.46,7.46,0,0,0-.8.79c-.22.26-.4.6-.73.73a2.08,2.08,0,0,1-1.08,0,11.72,11.72,0,0,1-3-.87,2.76,2.76,0,0,1-1.54-2.51c-.07-1.23.93-2.22,1.76-3a9.43,9.43,0,0,1,2.94-1.85,11.62,11.62,0,0,1,2.16-.63,44.12,44.12,0,0,1,8.66-.9,44.71,44.71,0,0,1,8.86,1c4.18.89,6.93,3.66,7.15,8,.31,6.22.15,12.46.39,18.68.06,1.59.95,3.14,1.26,4.74a3.44,3.44,0,0,1-.28,2.41c-1.63,2.23-5.58,2.47-7.9.6C188,151.25,187.46,150.6,186.7,149.86ZM185.9,134c-4.17.48-7.91.8-11.61,1.36-3.17.48-3.46,3-3.5,5.58s.47,5.18,3.44,5.23a43.53,43.53,0,0,0,9.84-1.42,3.36,3.36,0,0,0,1.75-2.5C186.05,139.69,185.9,137.05,185.9,134Z"/><path class="cls-8" d="M353,150.62c-1.79,3.5-5.64,3.61-10.27-.72a26,26,0,0,1-18,2.93c-4.33-.75-6.41-2.93-7-7.27-.13-.84-.23-1.69-.28-2.53-.47-7.54,2.22-10.87,9.71-11.77,4.85-.57,9.72-1,14.55-1.44a8.71,8.71,0,0,0,.2-1.59,8.3,8.3,0,0,0,0-1.41,4.78,4.78,0,0,0-.66-2.18c-1.22-1.92-3.77-2-5.78-2-.67,0-1.34,0-2,0a13.33,13.33,0,0,0-3.61.34,7.34,7.34,0,0,0-2.26,1,6.13,6.13,0,0,0-1.05.92,5.47,5.47,0,0,1-.94,1,2.3,2.3,0,0,1-1.3.13,13.67,13.67,0,0,1-1.53-.28A4.84,4.84,0,0,1,321,125a3.21,3.21,0,0,1-1.23-1.94,3,3,0,0,1,.74-2.35,8.07,8.07,0,0,1,1.27-1.52,8.41,8.41,0,0,1,3.57-1.65,36.62,36.62,0,0,1,4.38-.91,35.6,35.6,0,0,1,3.84-.36,38.77,38.77,0,0,1,11.83,1.43,7.45,7.45,0,0,1,5.77,7c.28,4.67.28,9.34.37,14,0,1.72.07,3.46.24,5.18a42.85,42.85,0,0,0,.91,5.16c.06.26.11.51.16.77S353.08,150.49,353,150.62ZM342,134c-4.18.49-8,.8-11.8,1.43-3.18.53-3.28,3.19-3.31,5.71s.53,5,3.35,5a42.88,42.88,0,0,0,9.84-1.36c.8-.18,1.73-1.73,1.83-2.72C342.18,139.59,342,137,342,134Z"/><path class="cls-9" d="M96.12,135.5a1.25,1.25,0,0,0-.09.37c0,.14,0,.28,0,.43a7.86,7.86,0,0,0,0,.84,2.45,2.45,0,0,1,0,.27c0,.61,0,1.23.08,1.85.41,4.37,2.06,6.28,6.41,6.94,4.72.72,9.4.71,13.53-2.35.1-.07,1,.75,1,.85a4.3,4.3,0,0,1,.75,1,2.84,2.84,0,0,1,.38,2c-.29,1.36-1.56,2.15-2.7,2.71a25.66,25.66,0,0,1-5.77,2.08,38.84,38.84,0,0,1-8.68.54,27.89,27.89,0,0,1-6.81-.69,10.12,10.12,0,0,1-5.35-3.12c-.12-.14-.23-.29-.34-.44a9.49,9.49,0,0,1-1.73-5,114,114,0,0,1,.19-18c.43-4.87,3.88-8,8.6-8.43a86.66,86.66,0,0,1,16.58-.15c5.58.51,7.71,3.31,8.33,9,.92,8.31.24,9.08-7.88,9.09q-7.92,0-15.83,0C96.63,135.24,96.25,135.28,96.12,135.5Zm0-5.23h14.6c.07-2.79,1.13-6-1.46-7.48-3.36-1.94-7.38-1.52-10.84.19C95.52,124.42,95.82,127.41,96.14,130.27Z"/><path class="cls-10" d="M54.69,152.64H45V131.87c0-2.33-.09-4.67,0-7a7.85,7.85,0,0,1,.4-3,3.45,3.45,0,0,1,1.74-1.71c.49-.22,1-.43,1.49-.63a43,43,0,0,1,6.09-1.92,43.71,43.71,0,0,1,6.23-1,49.72,49.72,0,0,1,6.34-.15c1.15,0,2.3.12,3.44.24,5.49.56,8.11,3.52,8.25,9.32.21,8.77.05,17.55.05,26.54h-10v-2.88c0-7.65,0-15.29-.11-22.94-.06-4.41-.56-4.79-5-4.63a34.53,34.53,0,0,0-4.77.45c-4.38.75-4.41.78-4.44,5.35,0,7.17,0,14.34,0,21.52Z"/><path class="cls-11" d="M150.2,127.31a12.4,12.4,0,0,0-1.6-2,11.37,11.37,0,0,0-2-1.64,11.6,11.6,0,0,0-4.66-1.82c-2.12-.33-5.2-.29-6.67,1.54a3.23,3.23,0,0,0-.17,3.25c1.42,3.39,5.74,3.7,8.79,4.59,1.89.55,3.84.94,5.71,1.55,5.64,1.84,7.29,5,6.5,12.32-.53,5-2.78,7.38-8.38,7.69a161.69,161.69,0,0,1-16.91-.1c-2.22-.11-4.62-1-5-3.75a5.33,5.33,0,0,1,2.78-6c3.95,4.18,9,5.2,14.61,4.9,2.55-.14,4.09-1.13,4.35-3.8.31-3.25-.56-4.69-3.54-5.44-3.2-.81-6.45-1.37-9.61-2.31-6.63-2-9.28-6.82-7.64-13.58a6.72,6.72,0,0,1,6.19-5.4,128.05,128.05,0,0,1,14.92-.53c2.27,0,4.94.51,5.47,3.5A6.72,6.72,0,0,1,150.2,127.31Z"/><path class="cls-12" d="M203,101.88h9.3v50.68H203Z"/><path class="cls-13" d="M37.71,127.4c-.48-6-3.82-9.63-9.82-10.22a88,88,0,0,0-16,0c-5.24.45-8.48,3.38-9.06,8.57A106.17,106.17,0,0,0,2.56,144c0,.11,0,.24,0,.35l.06.47c0,.1,0,.23.07.36a3,3,0,0,0,.08.43,2,2,0,0,0,0,.24,6.89,6.89,0,0,0,.45,1.35l0,.06.07.15a7.76,7.76,0,0,0,2.22,2.91,8.48,8.48,0,0,0,1,.71,8.9,8.9,0,0,0,.88.52c.06,0,.13.06.18.1a15.31,15.31,0,0,0,4.47,1.5,38.57,38.57,0,0,0,13.17.16A20.41,20.41,0,0,0,31.08,152a11.36,11.36,0,0,0,4.12-3.12,12.85,12.85,0,0,0,2.49-7.12A86.31,86.31,0,0,0,37.71,127.4ZM24,147.76c-.92.13-1.86.33-2.79.37-6.27.32-8.49-1.39-9-7.69a95.89,95.89,0,0,1,0-13.56c.19-3.19,1.77-4.36,5-4.73,8.36-1,10.76,1.13,11,9.61,0,.93,0,1.85,0,2.78L28,142.15c0,.59-.09,1.17-.16,1.76A4.08,4.08,0,0,1,24,147.76Z"/><path class="cls-14" d="M229.05,135.42a1.2,1.2,0,0,0-.1.37,3,3,0,0,0,0,.42,8,8,0,0,0,0,.85,2.11,2.11,0,0,0,0,.26c.05.62,0,1.24.07,1.86.42,4.37,2.06,6.28,6.41,6.94,4.72.72,9.4.71,13.54-2.35.09-.07.95.75,1,.85a5,5,0,0,1,.75.95,2.82,2.82,0,0,1,.37,2c-.28,1.35-1.55,2.14-2.7,2.71a25.49,25.49,0,0,1-5.77,2.08,38.21,38.21,0,0,1-8.68.53,27.75,27.75,0,0,1-6.8-.68,10.14,10.14,0,0,1-5.35-3.12c-.12-.15-.24-.29-.35-.45a9.6,9.6,0,0,1-1.73-5,114,114,0,0,1,.19-18c.43-4.87,3.88-8,8.61-8.44a87.37,87.37,0,0,1,16.57-.15c5.58.52,7.72,3.32,8.34,9,.91,8.32.24,9.09-7.88,9.1q-7.92,0-15.84,0C229.56,135.16,229.18,135.2,229.05,135.42Zm0-5.23h14.6c.07-2.79,1.13-6-1.45-7.48-3.37-1.94-7.39-1.52-10.85.19C228.44,124.34,228.74,127.32,229.06,130.19Z"/><path class="cls-15" d="M310.37,152.63h-9.59l-.17-7.59c-.05-6.29-.07-12.59-.23-18.88-.09-3.74-.89-4.27-4.46-4-4.69.31-5.37,1-5.41,5.76-.05,7.18,0,14.35,0,21.53v3.22h-10c0-4,0-8,0-11.9,0-4.9,0-9.82-.12-14.72-.1-3.4-1.06-4.12-4.39-3.89-.38,0-.76,0-1.13.12-4.4.75-4.59.91-4.63,5.4,0,3.93,0,7.87,0,11.8,0,2.26,0,4.54,0,6.81v6.39H260.5v-6.39c0-7.64,0-15.27,0-22.89,0-1.57.28-2.68,1.85-3.37,7.9-3.45,15.9-5.15,24.31-1.85a4.33,4.33,0,0,0,2.64-.2,27.07,27.07,0,0,1,13.64-1.11c4.71.82,7.25,3.24,7.39,7.94C310.58,134,310.37,143.18,310.37,152.63Z"/><path class="cls-16" d="M379.15,123.75a6.31,6.31,0,0,1-2.35,1,1.78,1.78,0,0,1-1.44-.71c-.21-.22-.39-.45-.56-.66a4.51,4.51,0,0,0-2.5-1.48c-2.79-.66-3.72,2.08-3.71,4.35,0,7.74,0,15.47,0,23.2v3.16h-9.78V137.19c0-.4,0-.81,0-1.21,0-2.33,0-4.66,0-7,0-.36,0-.72,0-1.09v0c0-.73,0-1.46,0-2.18a12.16,12.16,0,0,1,.2-3.19,4.48,4.48,0,0,1,2.33-2.7,31.09,31.09,0,0,1,11.92-3.13c2.58-.18,6.81-.24,7.63,3a2.84,2.84,0,0,1,.1.65A3.55,3.55,0,0,1,379.15,123.75Z"/><path class="cls-17" d="M395.54,125.27c0,4-.05,8,0,12,0,2,.05,3.92.1,5.89a7.6,7.6,0,0,0,1,3.49c.6,1.06,1.64,1.88,2,3.06s-.73,2.3-1.7,2.82a8.68,8.68,0,0,1-4.24.76,6.6,6.6,0,0,1-5.39-2.36c-2.16-3-1.67-7.23-1.7-10.71,0-4.21,0-8.41,0-12.62,0-.48,0-5.9,0-5.9h-2.86V117h2.87v-4.78c.12-5.25,2.93-5.55,5.46-5.44a11.79,11.79,0,0,1,1.94.08c2.83,0,2.52,2.32,2.52,2.32V117h5.59v4.67h-5.59v1Z"/></svg>