<svg id="Layer_1" data-name="Layer 1" xmlns="http://www.w3.org/2000/svg" viewBox="0 0 347.13 113.79"><defs><style>.cls-1{fill:#004b70;}.cls-2{fill:#005e92;}.cls-3{fill:#039dd9;}</style></defs><path class="cls-1" d="M46.75,68.57V64.65l6.76-5.36s1.74-1,2.16,0,0,4.42,0,4.42l-8.92,5.82Z"/><path class="cls-1" d="M72.93,62.82l6-2.55s-5.46-5.8-12.73-1.75S31,82,31,82c1.15-.66,2.45-1.31,3.6-2l8.37-4.75,10.28-5.85,9.22-5.24c1-.55,2-1.08,2.92-1.67a7.48,7.48,0,0,1,3.23-1.24A6.66,6.66,0,0,1,72,61.9l.19.1a1.74,1.74,0,0,1,.5.35S73,62.78,72.93,62.82Z"/><path class="cls-1" d="M90.63,66.69l12.88-3.14S95.79,52.79,86.61,56s-55.5,28.66-55.5,28.66l2.59-1.06,6.79-2.79L50,76.91l10.81-4.43,10.63-4.36,9-3.69c1.59-.65,3.21-1.26,4.79-1.93s4-1.89,5.6-.63C92.14,62.88,91.33,65.78,90.63,66.69Z"/><path class="cls-2" d="M31.11,87.29s26.22.35,40,4.4c9.54,2.81,18.8,6.9,28.51,9.26a29.86,29.86,0,0,0,4.26,1l3.48-3.05c5.18-4.53,8.57-10.44,11.59-16.58,4.29-8.71,9.14-18.58,16.86-24.6.86-.67,2.57-2.3,3.68-2.38C139.48,55.32,92.56,58.89,31.11,87.29Z"/><path class="cls-2" d="M60.16,95.59S50,93.15,45,91.69A65.71,65.71,0,0,1,32.23,87a24.35,24.35,0,0,0,9.52,5.57A88.72,88.72,0,0,0,60.16,95.59Z"/><path class="cls-2" d="M67.31,98.37a26.27,26.27,0,0,0,11.19,4.34,97.21,97.21,0,0,0,20.36,0s-11.39-.86-17-1.56A72.19,72.19,0,0,1,67.31,98.37Z"/><path class="cls-2" d="M52.42,90.37A26.39,26.39,0,0,0,63.3,95.48a96.55,96.55,0,0,0,20.32,1.41s-11.31-1.64-16.9-2.73A71.75,71.75,0,0,1,52.42,90.37Z"/><path class="cls-3" d="M31.84,83.4C30.25,77.87,32.42,72,35,66.85,45,47.05,61.66,31.53,79.5,18.76c-9.65,4.22-18,10.94-25.94,18-8.75,7.85-17.14,16.36-23,26.65a42.53,42.53,0,0,0-5.43,14.46,24.35,24.35,0,0,0,2.13,14.92c4.72.4,9.74,1.1,14.47,1.51C37.27,91.77,33.25,88.3,31.84,83.4Z"/><path class="cls-2" d="M98.1,10.7a5.34,5.34,0,0,0-2.94,0c-1.25.34-2.48.74-3.7,1.13a.65.65,0,0,1-.78-.16c-.65-.63-1.32-1.23-2-1.84L87.79,9c.67-.4.69-.46.45-1.18a3.52,3.52,0,0,0-.15-.42.51.51,0,0,0-.7-.34,4.06,4.06,0,0,0-.79.26c-.37.19-.61.06-.89-.2-.88-.83-1.78-1.64-2.68-2.45-.56-.5-.59-.5-1.26-.09.06.13.11.28.18.4,1.12,1.94,2.25,3.88,3.35,5.83.5.9.94,1.84,1.43,2.81L86,14l-1.65.73-3.43,1.51a.4.4,0,0,1-.53-.1l-2.29-2.23c-.78-.77-.78-.77-1.79-.34l0,.05,2.3,3.83L76.39,19l0,.14,2.64-.1c.14,1.49.28,3,.42,4.53a4.25,4.25,0,0,1,.54-.18c.52-.08.69-.4.75-.91.14-1.18.34-2.34.5-3.51,0-.25.12-.4.39-.45s.8-.2,1.19-.3l4.68-1.23a1.58,1.58,0,0,1,.23,0c.86,3.38.91,6.9,1.51,10.33.81-.16.81-.16.95-.9l.3-1.47L91,22.6a1.07,1.07,0,0,1,.13-.21A1.16,1.16,0,0,1,91.6,22c.25-.12.54-.1.79-.24s.17-.58.09-.87a3.47,3.47,0,0,0-.28-.76c-.06-.14-.4-.12-.67-.16L92,17.92s0,0,0-.06v-.05c.17-.69.34-1.38.52-2.07a.6.6,0,0,1,.32-.36c1.12-.46,2.25-.87,3.35-1.36a6,6,0,0,0,2.44-1.85C99.12,11.46,98.94,11,98.1,10.7Z"/><path class="cls-3" d="M75.43,104.19c-10.69-1.26-21.14-3.69-30.85-8.36-1-.47-1.92-1-2.87-1.51C37,93.91,32,93.21,27.24,92.81c0,.07.07.15.11.22l-.53-.25-.17,0,.17,0c-5.49-2.76-8.57-9.35-8.56-15.65,0-6.51,2.79-12.7,6.28-18.13,6.27-9.76,14.93-17.72,24.38-24.24S68.65,23.07,79,18.09C61.1,19.85,45,30.09,31.51,42.16c-9,8-17.73,18.07-18.5,30.28A12.44,12.44,0,0,1,11,63a24.68,24.68,0,0,1,3.83-9.09C20.29,45.3,28.19,38.65,36.48,33,49.19,24.22,63.8,17.22,79.11,17.49,70.92,15.17,62.09,16,54,18.71c-7.43,2.45-14.31,6.34-20.89,10.6A73.61,73.61,0,0,0,16.55,44.67c-1.2,1.48-2.35,3-3.42,4.58-5,7.26-8.41,15.73-9,24.56-.37,5.46.39,11.13,3,15.9,3,5.52,8.36,9.43,14.08,11.82s11.89,3.42,18,4.32c15.74,2.34,31.62,4,47.52,3.62,4.62-.12,9.7-.62,12.93-4A220.57,220.57,0,0,1,75.43,104.19Z"/><path class="cls-3" d="M98.79,11.12,76.41,19a.19.19,0,0,0,0-.08l2.16-1.55-2.31-3.83.06-.05c1-.43,1-.43,1.79.34l2.29,2.23a.4.4,0,0,0,.53.1l3.43-1.51c.54-.25,1.1-.48,1.65-.73l.74-.35c-.49-1-.93-1.91-1.43-2.81C84.2,8.84,83.07,6.9,82,5c-.07-.12-.12-.27-.18-.4.67-.41.7-.42,1.26.09.9.81,1.8,1.62,2.68,2.45a.69.69,0,0,0,.89.2A6.11,6.11,0,0,1,87.39,7a.52.52,0,0,1,.7.35,3.52,3.52,0,0,1,.15.42c.24.73.22.78-.45,1.17l.91.84c.66.61,1.33,1.21,2,1.84a.65.65,0,0,0,.78.16c1.23-.39,2.45-.79,3.7-1.13a5.25,5.25,0,0,1,2.94,0A1.28,1.28,0,0,1,98.79,11.12Z"/><path class="cls-3" d="M251.29,97.13c2.24-13.06,4.43-25.87,6.64-38.72,6.83,0,13.5-.21,20.14.08,4.25.18,6.32,3.11,5.92,7.46a39.09,39.09,0,0,1-.83,5c-.7,3.07-1.37,4-4.35,6.35,2.9,1.59,3.24,4.21,2.86,7.2-1.23,9.71-4.35,12.55-14,12.58C262.32,97.14,257,97.13,251.29,97.13Zm10.94-8.37c2.45,0,4.55,0,6.66,0,1.82,0,2.53-1.4,2.62-2.93s.1-4.45-.43-4.6c-2.25-.63-4.71-.48-7.1-.54-.18,0-.49.57-.55.92C263,83.87,262.66,86.16,262.23,88.76Zm2.55-14.94h5.08a10.43,10.43,0,0,0,1.58,0c1.94-.32,3.1-2.38,2.95-5.07-.12-2.22-1.65-2.27-3.22-2.29h-4.93a8.57,8.57,0,0,0-.43,1.26C265.46,69.64,265.14,71.61,264.78,73.82Z"/><path class="cls-3" d="M309.33,97.06h-7.64c-.05-.71-.11-1.36-.18-2.3-3.58,2.84-7.53,3.56-11.71,3.29-4.7-.31-6.55-2.66-5.82-7.37.24-1.54.5-3.07.79-4.59.78-4.14,2.7-6.25,6.77-6.68,3.22-.34,6.49-.17,9.74-.19.74,0,1.48.14,2.19.21.78-2.87.21-4-2.6-4.06-3.76-.11-7.53.2-11.52.34.31-1.91.6-4.11,1.09-6.25a1.93,1.93,0,0,1,1.42-1.16c5.2-.11,10.44-.48,15.6,0,4.05.36,5.94,3.35,5.35,7.48C311.79,82.84,310.52,89.87,309.33,97.06ZM303.13,85c-3,0-5.32-.17-7.62.05-1.89.19-2.24,1.95-2.3,3.52,0,.69.62,2,.89,2,2.36-.17,4.86-.2,7-1.08C302.07,89.05,302.34,86.83,303.13,85Z"/><path class="cls-3" d="M340,89.48c-.45,2.74-.83,5.08-1.24,7.53h-25c.4-2.49.7-4.87,1.22-7.2.14-.66.85-1.24,1.4-1.74,4.45-4,8.92-8,13.77-12.29H318.33c.39-2.43.67-4.55,1.11-6.63.08-.37.86-.83,1.32-.84,7.34,0,14.69,0,22.34,0-.51,3.19-.27,6.16-3,8.5-4.52,3.88-8.73,8.14-13.57,12.7Z"/><path class="cls-2" d="M231.58,68.27l.4,2.32a15.41,15.41,0,0,1,10-3c5.29,0,7.67,2.62,7.09,8.06-.32,3-.89,6-1.38,9-.22,1.37-.47,2.75-.77,4.11-1.63,7.33-6.13,10.42-13.34,9.13-1.7-.3-3.36-.79-5.26-1.24-.4,2.16-.79,4.28-1.17,6.39s-.76,4.27-1.16,6.51h-8.9c.78-4.62,1.52-9.11,2.28-13.59,1.46-8.49,3-17,4.35-25.46.28-1.74.88-2.39,2.61-2.24S229.75,68.27,231.58,68.27Zm-2,20.55a27.23,27.23,0,0,0,3.1.79c3.73.51,5.14-.51,5.92-4.31.34-1.67.6-3.36.85-5s.55-3.57-1.76-4.1c-2.5-.57-5.94.92-6.32,2.77C230.69,82.1,230.18,85.31,229.55,88.82Z"/><path class="cls-2" d="M140.81,88.12c4.26.22,8.25.46,12.24.59a3.89,3.89,0,0,0,3.11-.95A4.63,4.63,0,0,0,157.63,85c0-1.18-1.14-2.08-2.15-2.39-2.45-.77-5-1-7.51-1.77-4.57-1.4-5.91-3.77-5.15-8.59,1.82-11.46,5.42-14.75,16.78-14.86,3.28,0,6.56.53,10.11.85-.59,3.48-1.09,6.36-1.55,9-2.36-.11-4.72-.24-7.08-.36l-3.48-.15c-.89,0-2.15-.29-3,.21l-.14.1a5.85,5.85,0,0,0-1.14,1.59c-.44.77-1,1.84-.38,2.65,1,1.32,2.6,1.6,4.12,1.93,1.75.38,3.52.67,5.26,1.1,4.29,1,5.89,3.57,5.17,8.07-.3,1.91-.61,3.84-1.08,5.71-1.24,5-4.29,8.09-9.25,9.16a39.16,39.16,0,0,1-15.81.12c-1.57-.3-2.19-1-1.77-2.7C140.13,92.5,140.43,90.26,140.81,88.12Z"/><path class="cls-2" d="M177.3,57.87h8.9c-.63,3.91-1.25,7.68-1.79,11.05a100.3,100.3,0,0,1,10.49-1.2c4.37-.06,6.42,2.55,5.75,6.93C199.52,82.09,198.22,89.5,197,97h-9c.9-5.42,1.76-10.75,2.69-16.07.84-4.77-.09-5.73-4.8-4.8-2,.39-3.12,1.24-3.44,3.55-.79,5.76-1.88,11.48-2.87,17.32h-9C172.85,84,175.05,71,177.3,57.87Z"/><path class="cls-2" d="M208.38,68.4h9C215.7,78,214.08,87.5,212.46,97h-9Z"/></svg>