<?xml version="1.0"?>
<svg xmlns="http://www.w3.org/2000/svg" xmlns:xlink="http://www.w3.org/1999/xlink" xmlns:svgjs="http://svgjs.com/svgjs" version="1.1" width="512" height="512" x="0" y="0" viewBox="0 0 64 64" style="enable-background:new 0 0 512 512" xml:space="preserve" class=""><g><g xmlns="http://www.w3.org/2000/svg"><path d="m51.846 43.967-9.811-14.718c-.939-1.408-2.511-2.249-4.203-2.249-.688 0-1.357.137-1.99.408l-2.842 1.218v-4.091l.334-.223c3.548-2.364 5.666-6.322 5.666-10.587 0-7.017-5.708-12.725-12.725-12.725h-10.275c-2.757 0-5 2.243-5 5 0 2.414 1.721 4.434 4 4.899v7.358c0 4.821 3.922 8.743 8.743 8.743.086 0 .171-.018.257-.021v2.45c-2.639.929-4.603 3.295-4.943 6.158-.603-.365-1.302-.587-2.057-.587-2.206 0-4 1.794-4 4v9.943c0 3.731 2.552 6.868 6 7.781v6.276h24v-5.182c.336-.168.674-.334.994-.538l5.824-3.706c1.993-1.268 3.182-3.435 3.182-5.797 0-1.362-.399-2.679-1.154-3.81zm-.846 3.81c0 .87-.232 1.7-.649 2.425l-6.286-9.428 2.527-1.083 3.59 5.386c.535.801.818 1.736.818 2.7zm-10.898 8.841-1.751-1.945 1.663-1.842 2.025 2.244c-.5.668-1.16 1.211-1.937 1.543zm-3.096-3.439-1.665-1.85 1.659-1.837 1.668 1.847zm-6.006-1.179v-2.505l1.649 1.832-1.539 1.705c-.071-.334-.11-.678-.11-1.032zm4-7h6v2h-6zm-1.755 4h1.505l-.754.835zm6.005 0h1.53l-.765.847zm1.75-6h-6v-2h6zm-6-4c-1.103 0-2 .897-2 2v6h-2v-15h1.414c1.178 0 2.252.694 2.735 1.769l2.354 5.231zm-1.006 13.821 1.665 1.85-1.7 1.883c-.77-.347-1.429-.887-1.933-1.553zm3.01 3.344.751.835h-1.505zm4.358-4.826 1.13-1.252.088.196c.278.617.42 1.275.42 1.954 0 .282-.036.555-.083.824zm-4.734-22.092c.384-.164.788-.247 1.204-.247 1.022 0 1.972.508 2.539 1.358l5.093 7.641-3.273 1.403c-.334-.249-.744-.402-1.191-.402h-1.303l-2.723-6.052c-.561-1.246-1.604-2.174-2.844-2.63zm-23.628-23.247c0-1.654 1.346-3 3-3h10.275c5.913 0 10.725 4.812 10.725 10.725 0 3.267-1.486 6.309-4 8.335v-2.645l1.121-1.121c.567-.567.879-1.321.879-2.122v-.172c0-1.304-.836-2.416-2-2.829v-1.171c0-2.757-2.243-5-5-5h-7.184c-.414-1.161-1.514-2-2.816-2h-1v2h1c.552 0 1 .448 1 1s-.448 1-1 1h-2c-1.654 0-3-1.346-3-3zm13 20.676c.169-.045.342-.07.509-.125l1.808-.603-.633-1.896-1.808.603c-.688.229-1.405.345-2.133.345-3.718 0-6.743-3.025-6.743-6.743v-7.257h1c1.302 0 2.402-.839 2.816-2h7.184c1.654 0 3 1.346 3 3v3h1c.552 0 1 .448 1 1v.172c0 .263-.106.521-.293.707l-1.707 1.707v10.897l-.786.337c-.056.024-.099.065-.151.093l-.249-.124c-1.033-.517-2.189-.789-3.342-.789-.159 0-.315.014-.472.024zm.472 4.324c.845 0 1.691.2 2.448.578l.086.043c0 .013-.006.025-.006.038v1.783c-.81-.29-1.67-.442-2.528-.442-2.085 0-3.971.86-5.327 2.242.56-2.426 2.733-4.242 5.327-4.242zm-9.472 6c1.103 0 2 .897 2 2v2h-4v-2c0-1.103.897-2 2-2zm-2 11.943v-5.943h4v8h2v-10.528c0-3.018 2.455-5.472 5.472-5.472.845 0 1.691.2 2.448.578l.08.04v9.207l-2.25 6.188c-.868 2.384-3.156 3.987-5.693 3.987-3.34 0-6.057-2.717-6.057-6.057zm26 12.057h-20v-4.003c.019 0 .038.003.057.003 3.375 0 6.419-2.132 7.572-5.304l.371-1.02v1.324c0 3.859 3.141 7 7 7h2.088c.05 0 .099-.01.149-.011v.011c.337 0 .666-.033.99-.081.601-.062 1.194-.163 1.773-.322zm3.592-6.471c.259-.717.408-1.486.408-2.292 0-.965-.2-1.898-.596-2.775l-1.404-3.121v-3.559l5.963 8.945c-.074.053-.142.111-.219.16z" fill="#1C0E00" data-original="#000000" style="" class=""/><circle cx="20" cy="14" r="1" fill="#1C0E00" data-original="#000000" style="" class=""/><circle cx="26" cy="14" r="1" fill="#1C0E00" data-original="#000000" style="" class=""/><path d="m19 19c0 2.206 1.794 4 4 4s4-1.794 4-4v-2h-8zm6 0c0 1.103-.897 2-2 2s-2-.897-2-2z" fill="#1C0E00" data-original="#000000" style="" class=""/></g></g></svg>
