<?xml version="1.0" encoding="iso-8859-1"?>
<!-- Generator: Adobe Illustrator 19.0.0, SVG Export Plug-In . SVG Version: 6.00 Build 0)  -->
<svg version="1.1" id="Capa_1" xmlns="http://www.w3.org/2000/svg" xmlns:xlink="http://www.w3.org/1999/xlink" x="0px" y="0px"
	 viewBox="0 0 448 448" style="enable-background:new 0 0 448 448;" xml:space="preserve">
<g>
	<g>
		<path d="M384,208v8h-16.404c-2.637-53.168-31.098-99.453-73.234-126.554L272,0H144l-22.362,89.446
			C77.386,117.906,48,167.473,48,224c0,56.523,29.386,106.094,73.638,134.554L144,448h128l22.362-89.446
			c42.137-27.102,70.598-73.386,73.234-126.554H384v8h16v-8v-16v-8H384z M156.492,16h103.016l15.742,62.969
			C254.783,69.457,232.053,64,208,64s-46.783,5.457-67.25,14.969L156.492,16z M259.508,432H156.492l-15.742-62.969
			C161.217,378.539,183.947,384,208,384s46.783-5.461,67.25-14.969L259.508,432z M208,368c-79.402,0-144-64.598-144-144
			S128.598,80,208,80s144,64.598,144,144S287.402,368,208,368z" fill="#1C0E00" data-original="#000000" style="" class=""/>
	</g>
</g>
<g>
	<g>
		<polygon points="215.998,221.574 215.998,127.996 199.998,127.996 199.998,226.418 233.342,276.434 246.654,267.558 		" fill="#1C0E00" data-original="#000000" style="" class=""/>
	</g>
</g>
<g>
</g>
<g>
</g>
<g>
</g>
<g>
</g>
<g>
</g>
<g>
</g>
<g>
</g>
<g>
</g>
<g>
</g>
<g>
</g>
<g>
</g>
<g>
</g>
<g>
</g>
<g>
</g>
<g>
</g>
</svg>
