<svg width="461" height="207" viewBox="0 0 461 207" fill="none" xmlns="http://www.w3.org/2000/svg">
<path d="M265.671 15.3433C261.145 10.5552 255.735 6.68748 249.741 3.95331C232.221 -3.86669 210.301 0.163306 196.821 13.8433C191.497 19.0599 187.47 25.4518 185.063 32.506C182.656 39.5603 181.936 47.0805 182.961 54.4633C184.277 64.7006 188.914 74.2238 196.161 81.5733C203.071 88.6648 212.005 93.4459 221.738 95.2612C231.472 97.0765 241.529 95.8373 250.531 91.7133C267.021 84.2433 278.481 66.8833 278.451 48.7133C278.682 36.3531 274.099 24.3871 265.671 15.3433V15.3433ZM274.321 56.1533C272.441 67.0533 266.041 76.8633 257.421 83.6633C255.714 84.7166 254.027 85.8033 252.361 86.9233L249.071 88.5233C238.614 93.3531 226.694 93.9444 215.811 90.1733C212.378 88.7511 209.038 87.1145 205.811 85.2733C204.251 84.0233 202.691 82.7533 201.161 81.4733L199.421 80.0733C196.141 76.6224 193.291 72.788 190.931 68.6533C182.661 52.8233 184.931 32.1833 196.861 18.8233C199.112 16.3884 201.542 14.1254 204.131 12.0533C204.971 11.5233 205.811 10.9733 206.631 10.4233C212.145 6.91623 218.357 4.65225 224.835 3.78879C231.312 2.92532 237.9 3.48309 244.141 5.42331C245.501 6.03331 246.891 6.5633 248.281 7.1133C249.411 7.6633 250.551 8.1733 251.691 8.6933C258.755 12.6878 264.706 18.3878 269.001 25.2733C274.356 34.6186 276.24 45.5547 274.321 56.1533V56.1533Z" fill="black"/>
<path d="M243.18 30.6934C242.55 30.6934 241.82 30.6934 241.18 30.6934H239.75L235.13 38.8334C236.53 41.6734 238.07 44.4534 239.73 47.1434C241.4 44.4234 243.07 41.6934 244.64 38.9134C247.53 38.7534 250.43 38.7734 253.32 38.8234L239.32 62.8234C236.75 57.4234 233.32 52.4834 230.61 47.1534C227.54 52.2834 224.39 57.3834 221.61 62.6934L207.36 38.4634C210.16 38.4034 212.98 38.4634 215.79 38.4634C217.709 41.2315 219.452 44.1171 221.01 47.1034L228.34 34.9934C229.153 33.62 229.98 32.2534 230.82 30.8934C218.25 30.7634 205.67 30.8934 193.09 30.8234C196.89 37.2634 200.52 43.8234 204.34 50.2134C209.89 59.9934 215.57 69.7034 221.2 79.4434C224.2 74.1134 227.2 68.7334 230.6 63.6134C233.54 68.9934 236.83 74.1634 239.82 79.5234C244.17 71.4734 248.95 63.6634 253.5 55.7134C258.3 47.3934 262.91 38.9434 268.02 30.8034C259.74 30.6734 251.47 30.7434 243.18 30.6934Z" fill="black"/>
<path d="M37.62 121.023H44.47L36.97 184.553H29.57L22.78 137.663L15.6 184.553H8.38L0 121.023H6.9L12.31 169.713L19.53 121.023H25.63L33.03 169.713L37.62 121.023Z" fill="black"/>
<path d="M69.6012 121.023H77.0712V184.553H69.6012V153.763H59.4712V184.553H51.9512V121.023H59.4712V147.663H69.6012V121.023Z" fill="black"/>
<path d="M86.75 138.313C86.75 131.093 88.0467 126.137 90.64 123.443C92.6934 121.323 95.6667 120.263 99.56 120.263C105.24 120.263 108.873 122.597 110.46 127.263C111.512 130.849 111.988 134.578 111.87 138.313V166.313C111.87 172.933 110.943 177.753 109.09 180.773C107.237 183.793 103.993 185.303 99.36 185.303C94.7334 185.303 91.4734 183.787 89.58 180.753C87.6867 177.72 86.7434 172.907 86.75 166.313V138.313ZM104.4 137.883C104.4 133.817 104.067 130.933 103.4 129.233C103.119 128.434 102.581 127.751 101.869 127.291C101.158 126.831 100.314 126.621 99.47 126.693C98.5964 126.634 97.7264 126.854 96.9858 127.321C96.2453 127.788 95.6724 128.479 95.35 129.293C94.5767 131.027 94.1934 133.877 94.2 137.843V166.393C94.2 171.233 94.53 174.523 95.2 176.273C95.5556 177.057 96.1295 177.722 96.853 178.188C97.5766 178.655 98.4192 178.903 99.28 178.903C100.141 178.903 100.983 178.655 101.707 178.188C102.431 177.722 103.004 177.057 103.36 176.273C104.027 174.507 104.36 171.227 104.36 166.433L104.4 137.883Z" fill="black"/>
<path d="M121.541 121.023H129.011V178.383H140.751V184.553H121.541V121.023Z" fill="black"/>
<path d="M147.24 121.023H166.24V127.233H154.72V148.963H165.62V155.173H154.72V178.343H166.37V184.553H147.24V121.023Z" fill="black"/>
<path d="M174.351 140.733C173.886 138.955 173.668 137.121 173.7 135.283C173.7 130.683 174.551 127.017 176.251 124.283C177.951 121.55 181.194 120.197 185.98 120.223C192.14 120.223 195.774 123.183 196.881 129.103C197.411 132.288 197.652 135.515 197.601 138.743V142.493H190.471V138.233C190.589 135.502 190.384 132.766 189.861 130.083C189.647 129.024 189.117 128.054 188.34 127.303C187.66 126.818 186.836 126.575 186.001 126.613C185.229 126.553 184.456 126.708 183.767 127.061C183.079 127.414 182.502 127.952 182.101 128.613C180.552 132.311 180.513 136.467 181.991 140.193C182.742 141.444 183.638 142.602 184.661 143.643C185.721 144.743 186.311 145.363 186.431 145.503L190.76 150.083C195.96 155.523 198.56 161.613 198.56 168.353C198.56 173.847 197.71 178.04 196.01 180.933C194.31 183.827 191.081 185.277 186.321 185.283C180.574 185.283 176.927 182.757 175.381 177.703C174.391 174.069 173.943 170.308 174.051 166.543V160.013H181.301V166.463C181.301 171.13 181.634 174.36 182.301 176.153C182.529 176.965 183.025 177.675 183.707 178.171C184.389 178.666 185.218 178.917 186.06 178.883C187.89 178.883 189.151 178.453 189.851 177.603C190.647 176.452 191.069 175.083 191.06 173.683C191.167 171.923 191.221 169.95 191.221 167.763C191.221 163.363 189.284 159.223 185.411 155.343L181.26 151.193C177.54 147.42 175.237 143.933 174.351 140.733Z" fill="black"/>
<path d="M213.371 121.023H222.371L232.881 184.553H225.881L224.021 172.463H212.471L210.811 184.593H203.701L213.371 121.023ZM213.371 166.363H223.111L218.111 132.793H218.001L213.371 166.363Z" fill="black"/>
<path d="M240.471 121.023H247.941V178.383H259.671V184.553H240.471V121.023Z" fill="black"/>
<path d="M268.561 121.023H287.561V127.233H276.031V148.963H286.931V155.173H276.031V178.343H287.691V184.553H268.561V121.023Z" fill="black"/>
<path d="M298.701 157.623C300.051 154.113 303.901 154.623 306.891 154.623H314.411C319.411 154.623 324.411 154.623 329.411 154.623H330.411C331.601 154.623 333.141 154.503 334.161 155.243C336.241 156.763 333.891 159.873 332.161 160.383C330.482 160.708 328.766 160.799 327.061 160.653H301.051C300.653 160.687 300.253 160.621 299.887 160.462C299.52 160.303 299.199 160.056 298.951 159.743C298.726 159.444 298.584 159.089 298.54 158.717C298.496 158.345 298.552 157.967 298.701 157.623V157.623Z" fill="black"/>
<path d="M308.67 169.223C308.984 168.388 309.548 167.671 310.286 167.17C311.024 166.668 311.898 166.408 312.79 166.423C315.26 166.423 317.74 166.423 320.22 166.423H330.75C334.199 166.311 337.652 166.405 341.09 166.703C342.8 166.913 343.14 168.073 342.81 169.643C342.56 170.883 341.93 172.063 340.61 172.253C337.712 172.525 334.798 172.592 331.89 172.453H315.28C314.03 172.453 312.77 172.453 311.52 172.453C311.078 172.534 310.624 172.506 310.195 172.372C309.766 172.238 309.377 172.001 309.06 171.683C308.828 171.38 308.666 171.029 308.585 170.655C308.504 170.282 308.506 169.896 308.59 169.523C308.611 169.422 308.638 169.322 308.67 169.223Z" fill="black"/>
<path d="M303.871 178.923C304.069 178.833 304.277 178.766 304.491 178.723C305.23 178.618 305.975 178.558 306.721 178.543C308.251 178.543 309.771 178.593 311.301 178.543C313.041 178.543 314.791 178.473 316.531 178.543L318.781 178.633C319.781 178.633 320.941 178.513 321.371 179.633C321.529 180.085 321.595 180.563 321.566 181.041C321.536 181.518 321.411 181.985 321.199 182.413C320.987 182.842 320.691 183.223 320.329 183.536C319.967 183.849 319.546 184.086 319.091 184.233C317.777 184.631 316.397 184.767 315.031 184.633C313.031 184.573 311.121 184.633 309.171 184.633C307.541 184.719 305.907 184.649 304.291 184.423C303.595 184.393 302.928 184.136 302.391 183.693C302.217 183.45 302.093 183.174 302.026 182.882C301.959 182.591 301.951 182.288 302.001 181.993C301.968 181.168 302.255 180.363 302.801 179.743C303.112 179.415 303.473 179.138 303.871 178.923V178.923Z" fill="black"/>
<path d="M348.37 202.863C346.6 197.103 352.311 190.863 358.141 191.443C359.642 191.527 361.055 192.182 362.09 193.273C363.126 194.364 363.705 195.809 363.71 197.313C363.627 199.787 362.63 202.142 360.911 203.923C357.891 207.463 350.03 208.263 348.37 202.863Z" fill="black"/>
<path d="M411.59 200.533C411.53 194.093 419.78 188.753 425.29 192.793C427.82 194.653 427.51 198.793 426.36 201.303C425.561 202.91 424.351 204.276 422.853 205.263C421.355 206.25 419.622 206.823 417.83 206.923C414.09 207.063 411.61 204.033 411.59 200.533Z" fill="black"/>
<path d="M429.521 184.163C440.071 162.913 450.431 141.563 460.941 120.283C427.771 120.113 394.591 120.283 361.421 120.193C360.661 112.403 360.421 104.553 359.721 96.7532L359.291 96.3932C354.721 95.9732 350.141 96.6632 345.561 96.4732C340.431 96.7332 335.291 96.3432 330.181 96.7632C329.821 98.4832 329.481 100.193 329.181 101.923C335.971 102.263 342.791 102.023 349.601 101.993L352.791 142.673H349.261C344.261 142.673 339.191 142.673 334.161 142.673H326.621H322.851C321.956 142.634 321.072 142.883 320.329 143.383C319.585 143.884 319.022 144.609 318.721 145.453C318.563 145.906 318.525 146.391 318.611 146.863C318.697 147.334 318.904 147.776 319.211 148.143C319.941 148.893 321.131 148.793 322.101 148.763C327.151 148.563 332.231 148.763 337.291 148.763C342.351 148.763 347.361 148.763 352.401 148.763H367.471C372.505 148.763 377.541 148.763 382.581 148.763C383.317 148.805 384.019 149.086 384.581 149.563C385.581 150.453 385.031 152.053 384.351 152.973C384.029 153.445 383.6 153.834 383.1 154.11C382.6 154.386 382.042 154.541 381.471 154.563C375.198 154.563 368.921 154.563 362.641 154.563H347.471C346.091 154.563 344.261 154.213 343.051 155.013C342.52 155.317 342.058 155.728 341.695 156.221C341.331 156.713 341.075 157.276 340.941 157.873C340.876 158.614 341.106 159.351 341.581 159.923C341.835 160.19 342.149 160.39 342.498 160.507C342.847 160.624 343.219 160.653 343.581 160.593C344.961 160.593 346.341 160.593 347.721 160.593C354.391 160.593 361.071 160.593 367.721 160.593H385.721C386.391 160.48 387.08 160.611 387.661 160.963C388.471 161.663 388.461 163.213 388.201 164.123C387.411 166.863 383.881 166.663 381.681 166.603C380.381 166.603 379.081 166.523 377.771 166.503C375.201 166.443 372.621 166.413 370.051 166.403C363.361 166.403 356.671 166.483 349.991 166.633C347.871 166.833 346.091 169.153 346.991 171.223C347.351 172.583 348.991 172.433 350.121 172.493C357.728 172.493 365.338 172.493 372.951 172.493C374.337 172.413 375.726 172.413 377.111 172.493C378.201 172.633 379.681 172.833 379.881 174.123C379.991 174.736 379.942 175.366 379.739 175.954C379.536 176.543 379.186 177.069 378.721 177.483C377.54 178.261 376.129 178.614 374.721 178.483C373.061 178.423 371.401 178.403 369.721 178.413C366.391 178.413 363.071 178.513 359.721 178.513H337.141C335.141 178.513 333.071 178.403 331.041 178.583C330.285 178.564 329.544 178.801 328.938 179.254C328.332 179.708 327.896 180.352 327.701 181.083C327.557 181.691 327.557 182.325 327.701 182.933C327.767 183.278 327.944 183.592 328.207 183.825C328.469 184.058 328.801 184.198 329.151 184.223C331.72 184.52 334.307 184.627 336.891 184.543C343.341 184.543 349.801 184.543 356.261 184.593C356.401 186.403 356.521 188.213 356.731 190.023C380.305 190.023 403.881 190.023 427.461 190.023C427.721 189.103 427.971 188.183 428.221 187.263C407.521 187.013 386.811 187.263 366.101 187.123C366.101 186.273 366.101 185.423 366.051 184.573C385.741 184.483 405.441 184.573 425.131 184.523C426.602 184.523 428.07 184.402 429.521 184.163Z" fill="black"/>
</svg>
