<svg id="Layer_1" data-name="Layer 1" xmlns="http://www.w3.org/2000/svg" viewBox="0 0 403.45 186.21"><defs><style>.cls-1{fill:#dba228;}</style></defs><path class="cls-1" d="M232.38,17.42a43.65,43.65,0,0,0-13.64-9.75C203.75,1,185,4.42,173.46,16.13a40.78,40.78,0,0,0-11.85,34.73,40.28,40.28,0,0,0,11.29,23.2,41.12,41.12,0,0,0,46.52,8.68c14.11-6.4,23.92-21.25,23.89-36.78A40.78,40.78,0,0,0,232.38,17.42Zm7.4,34.92a39,39,0,0,1-14.47,23.53q-2.19,1.35-4.33,2.8L218.17,80a38.1,38.1,0,0,1-28.46,1.41,76.56,76.56,0,0,1-8.59-4.19c-1.34-1.07-2.67-2.16-4-3.25-.49-.41-1-.8-1.49-1.2A50.58,50.58,0,0,1,168.39,63c-7.08-13.55-5.18-31.21,5.07-42.63a57.8,57.8,0,0,1,6.22-5.8c.72-.46,1.44-.92,2.14-1.4A38.49,38.49,0,0,1,213.91,9c1.17.52,2.36,1,3.55,1.45,1,.47,1.94.91,2.91,1.35A41.56,41.56,0,0,1,235.19,26,39.13,39.13,0,0,1,239.78,52.34Z"/><path class="cls-1" d="M213.13,30.55c-.54,0-1.16,0-1.74,0h-1.23l-3.95,7c1.2,2.43,2.52,4.81,3.93,7.11,1.43-2.32,2.86-4.66,4.2-7,2.48-.13,5-.12,7.43-.08l-12,20.54c-2.2-4.62-5.11-8.85-7.45-13.41C199.73,49,197,53.4,194.68,57.94l-12.2-20.76c2.4,0,4.81,0,7.21,0a68.59,68.59,0,0,1,4.47,7.4l6.27-10.36q1-1.77,2.13-3.51c-10.77-.11-21.52,0-32.29-.06,3.25,5.51,6.36,11.1,9.62,16.59,4.76,8.37,9.61,16.68,14.43,25,2.6-4.56,5.16-9.16,8.05-13.55,2.51,4.61,5.33,9,7.88,13.62C214,65.39,218.07,58.71,222,51.91c4.11-7.12,8-14.35,12.42-21.32C227.3,30.53,220.21,30.59,213.13,30.55Z"/><path class="cls-1" d="M37.24,107.84h5.87L36.68,162.2H30.35l-5.81-40.12L18.4,162.2H12.22L5.05,107.84H11l4.63,41.67,6.18-41.67H27l6.33,41.67Z"/><path class="cls-1" d="M64.6,107.84H71V162.2H64.6V135.86H55.89V162.2H49.5V107.84h6.39v22.8H64.6Z"/><path class="cls-1" d="M79.27,122.64q0-9.27,3.34-12.73,2.63-2.72,7.63-2.72,7.29,0,9.33,6a30.37,30.37,0,0,1,1.2,9.46v24q0,8.51-2.38,12.37t-8.32,3.88q-6,0-8.37-3.89c-1.62-2.6-2.43-6.71-2.43-12.36Zm15.11-.37a22.79,22.79,0,0,0-.84-7.4,3.25,3.25,0,0,0-3.36-2.18,3.53,3.53,0,0,0-3.52,2.22q-1,2.24-1,7.32v24.44c0,4.13.29,7,.86,8.44a3.83,3.83,0,0,0,7,0c.58-1.51.87-4.32.87-8.41Z"/><path class="cls-1" d="M109.05,107.84h6.39v49.08h10v5.28H109.05Z"/><path class="cls-1" d="M131,107.84h16.25v5.31h-9.86v18.6h9.33v5.31h-9.33v19.83h10v5.31H131Z"/><path class="cls-1" d="M154.24,124.71a17.21,17.21,0,0,1-.56-4.67c0-3.93.73-7.06,2.18-9.37s4.22-3.48,8.32-3.48q7.9,0,9.33,7.6a45.79,45.79,0,0,1,.62,8.25v3.21H168v-3.64a30,30,0,0,0-.52-7,4.6,4.6,0,0,0-1.3-2.37,3.24,3.24,0,0,0-2-.59,3.59,3.59,0,0,0-3.33,1.7,9.93,9.93,0,0,0-1,5,9.91,9.91,0,0,0,.92,4.88,16.06,16.06,0,0,0,2.29,3c.9.94,1.41,1.47,1.51,1.59l3.71,3.93q6.68,7,6.67,15.62,0,7-2.18,10.77t-8.29,3.72q-7.38,0-9.36-6.49a32.73,32.73,0,0,1-1.14-9.54v-5.59h6.21v5.53c0,4,.28,6.74.86,8.29a3.2,3.2,0,0,0,3.21,2.33,4,4,0,0,0,3.25-1.09,5.86,5.86,0,0,0,1-3.35c.09-1.51.14-3.2.14-5.07q0-5.66-5-10.62l-3.55-3.56Q155.37,128.82,154.24,124.71Z"/><path class="cls-1" d="M187.63,107.84h7.69l9,54.36h-6l-1.54-10.38h-9.86l-1.42,10.38h-6.08Zm0,38.8h8.34l-4.29-28.73h-.09Z"/><path class="cls-1" d="M210.79,107.84h6.39v49.08h10v5.28H210.79Z"/><path class="cls-1" d="M234.85,107.84h16.24v5.31h-9.85v18.6h9.33v5.31h-9.33v19.83h10v5.31H234.85Z"/><path class="cls-1" d="M260.64,139.16c1.15-3,4.45-2.56,7-2.57h6.44c4.29,0,8.58,0,12.87,0h.9c1,0,2.34-.11,3.2.53,1.79,1.3-.22,4-1.72,4.4a15.9,15.9,0,0,1-4.36.23H262.64a2,2,0,0,1-1.79-.79A1.77,1.77,0,0,1,260.64,139.16Z"/><path class="cls-1" d="M269.17,149.09a3.67,3.67,0,0,1,3.52-2.4c2.12,0,4.24,0,6.36,0h9a70.6,70.6,0,0,1,8.85.24c1.46.18,1.75,1.17,1.47,2.51a2.46,2.46,0,0,1-1.88,2.24,54.63,54.63,0,0,1-7.46.16H274.83l-3.23,0a2.34,2.34,0,0,1-2.1-.65,2.3,2.3,0,0,1-.41-1.85A2,2,0,0,1,269.17,149.09Z"/><path class="cls-1" d="M265.06,157.39a2,2,0,0,1,.53-.17,15.22,15.22,0,0,1,1.91-.16c1.3,0,2.61.05,3.92,0,1.49,0,3-.06,4.47,0,.65,0,1.29,0,1.93.07.85,0,1.85-.1,2.22.85a3.1,3.1,0,0,1-2,3.94,9.09,9.09,0,0,1-3.48.34c-1.67-.05-3.35,0-5,0a22.33,22.33,0,0,1-4.17-.19,2.74,2.74,0,0,1-1.63-.62,2,2,0,0,1-.33-1.46,2.69,2.69,0,0,1,.69-1.92A3.44,3.44,0,0,1,265.06,157.39Z"/><path class="cls-1" d="M303.14,177.87c-1.52-4.93,3.37-10.26,8.35-9.77a5,5,0,0,1,4.77,5,8.56,8.56,0,0,1-2.39,5.65C311.29,181.81,304.55,182.49,303.14,177.87Z"/><path class="cls-1" d="M357.23,175.88c-.05-5.51,7-10.09,11.72-6.62,2.17,1.58,1.91,5.09.92,7.27a8.67,8.67,0,0,1-7.3,4.81A5.2,5.2,0,0,1,357.23,175.88Z"/><path class="cls-1" d="M372.58,161.87c9-18.18,17.89-36.46,26.88-54.66-28.39-.15-56.77,0-85.16-.08-.65-6.67-.85-13.38-1.46-20l-.36-.31c-3.91-.36-7.83.23-11.75.06-4.38.22-8.78-.11-13.16.25-.3,1.47-.6,2.94-.87,4.42,5.81.29,11.65.08,17.47.06l2.74,34.8q-1.52,0-3,0c-4.31,0-8.61,0-12.92,0h-6.45l-3.23,0a3.58,3.58,0,0,0-3.53,2.38,2.36,2.36,0,0,0,.42,2.3,3.18,3.18,0,0,0,2.47.53c4.32-.17,8.67,0,13,0H319.5l12.93,0a2.9,2.9,0,0,1,1.71.68c.89.76.39,2.13-.19,2.92a3.15,3.15,0,0,1-2.51,1.32q-8.06,0-16.12,0H302.4c-1.18,0-2.75-.31-3.78.38a3.75,3.75,0,0,0-1.81,2.45,2.47,2.47,0,0,0,.55,1.75,1.92,1.92,0,0,0,1.7.57c1.18,0,2.36,0,3.53,0,5.72,0,11.43,0,17.14,0h15.42a2.4,2.4,0,0,1,1.66.32,2.87,2.87,0,0,1,.46,2.7c-.67,2.35-3.7,2.18-5.58,2.12l-3.34-.09c-2.21,0-4.41-.07-6.61-.07-5.73,0-11.45.06-17.17.19a3,3,0,0,0-2.59,3.92c.3,1.17,1.73,1,2.68,1.09h19.53a30.2,30.2,0,0,1,3.56,0c.93.11,2.19.29,2.37,1.4a3.15,3.15,0,0,1-1,2.87,5.37,5.37,0,0,1-3.39.86c-1.43,0-2.85-.06-4.27-.06-2.85,0-5.7.09-8.55.09H293.53c-1.74,0-3.48-.1-5.22.06a2.88,2.88,0,0,0-2.86,2.14,3.51,3.51,0,0,0,0,1.58,1.36,1.36,0,0,0,1.25,1.1,45.63,45.63,0,0,0,6.61.28c5.53,0,11.06,0,16.58,0,.12,1.55.23,3.1.4,4.65q30.25,0,60.52,0c.22-.79.44-1.58.65-2.37-17.71-.21-35.43,0-53.15-.11,0-.73,0-1.46,0-2.19,16.85-.07,33.7,0,50.55,0A24,24,0,0,0,372.58,161.87Z"/></svg>