<svg id="Layer_1" data-name="Layer 1" xmlns="http://www.w3.org/2000/svg" viewBox="0 0 227.09 227.1"><path d="M196.83,36.3C186,25.11,173.41,15.66,159.14,9.35,117.69-9.14,65.83.38,33.93,32.74,8.74,57.2-4.08,94,1.16,128.77,4,152.83,15.45,175.64,32.38,192.91a115,115,0,0,0,43.16,27.68c27.56,9.94,58.8,8.32,85.47-3.68,39-17.69,66.12-58.75,66.05-101.7A112.75,112.75,0,0,0,196.83,36.3Zm20.46,96.55c-4.46,25.78-19.6,49-40,65.07q-6.08,3.74-12,7.73c-2.58,1.27-5.18,2.5-7.78,3.78-24.37,11.65-53.24,12.57-78.68,3.89-8.28-3.09-16-7.5-23.75-11.59q-5.57-4.44-11-9c-1.37-1.11-2.76-2.21-4.13-3.31-7.58-8.31-14.68-17.1-20.08-27C.35,125,5.59,76.13,34,44.54a158.75,158.75,0,0,1,17.18-16c2-1.26,4-2.55,5.93-3.86,26-16.82,59.26-21,88.72-11.73,3.24,1.45,6.52,2.69,9.81,4,2.67,1.29,5.36,2.5,8,3.72a114.73,114.73,0,0,1,41,39.25A108,108,0,0,1,217.29,132.85Z"/><path d="M143.6,72.62c-1.47.09-3.2-.06-4.8,0h-3.4L124.49,91.91c3.3,6.72,7,13.29,10.87,19.67,3.94-6.44,7.89-12.89,11.61-19.47,6.84-.38,13.7-.35,20.54-.22l-33.07,56.77c-6.09-12.76-14.14-24.46-20.61-37.06-7.26,12.15-14.71,24.19-21.23,36.75L58.86,91c6.65-.16,13.31-.13,20-.12a187.18,187.18,0,0,1,12.34,20.45L108.5,82.64q2.9-4.87,5.89-9.7c-29.76-.29-59.51,0-89.27-.16,9,15.24,17.57,30.68,26.6,45.87,13.14,23.13,26.57,46.11,39.89,69.15,7.2-12.6,14.26-25.33,22.25-37.45,7,12.73,14.74,25,21.8,37.65C146,169,157.26,150.46,168,131.67,179.39,112,190.3,92,202.38,72.72,182.79,72.56,163.19,72.73,143.6,72.62Z"/></svg>